<svg aria-hidden="true" style="position: absolute; width: 0; height: 0; overflow: hidden;" version="1.1" xmlns="http://www.w3.org/2000/svg" xmlns:xlink="http://www.w3.org/1999/xlink">
<defs>
<symbol id="coh-icon-accordion-container" viewBox="0 0 16 16">
<title>accordion-container</title>
<path d="M14.857 2.286v11.429h-13.714v-11.429h13.714zM16 1.143h-16v13.714h16v-13.714z"></path>
<path d="M2.286 9.143h11.429v1.143h-11.429v-1.143z"></path>
<path d="M2.286 3.429h11.429v1.143h-11.429v-1.143z"></path>
<path d="M2.286 11.429h11.429v1.143h-11.429v-1.143z"></path>
<path d="M3.429 4.571h1.143v3.429h-1.143v-3.429z"></path>
<path d="M11.429 4.571h1.143v3.429h-1.143v-3.429z"></path>
<path d="M4.571 6.857h8v1.143h-8v-1.143z"></path>
</symbol>
<symbol id="coh-icon-accordion-item" viewBox="0 0 16 16">
<title>accordion-item</title>
<path d="M14.857 2.286v11.429h-13.714v-11.429h13.714zM16 1.143h-16v13.714h16v-13.714z"></path>
<path d="M2.286 9.143h11.429v1.143h-11.429v-1.143z"></path>
<path d="M2.286 3.429h11.429v1.143h-11.429v-1.143z"></path>
<path d="M2.286 11.429h11.429v1.143h-11.429v-1.143z"></path>
<path d="M3.429 4.571h1.143v3.429h-1.143v-3.429z"></path>
<path d="M11.429 4.571h1.143v3.429h-1.143v-3.429z"></path>
<path d="M3.429 4.571h9.143v3.429h-9.143v-3.429z"></path>
</symbol>
<symbol id="coh-icon-advanced-column" viewBox="0 0 16 16">
<title>advanced-column</title>
<path d="M14.857 2.286v11.429h-13.714v-11.429h13.714zM16 1.143h-16v13.714h16v-13.714z"></path>
<path d="M6.857 2.286h2.286v11.429h-2.286v-11.429z"></path>
<path d="M13.717 3.429h-3.431v9.143h3.44v-9.143h-0.009zM11.429 11.466v-6.92h1.155v6.92h-1.155z"></path>
</symbol>
<symbol id="coh-icon-advanced-slide-item" viewBox="0 0 16 16">
<title>advanced-slide-item</title>
<path d="M14.857 2.286v8h-13.714v-8h13.714zM16 1.143h-16v10.286h16v-10.286z"></path>
<path d="M12.571 12.571h1.143v1.143h-1.143v-1.143z"></path>
<path d="M2.286 12.571h1.143v1.143h-1.143v-1.143z"></path>
<path d="M4.571 12.571h1.143v1.143h-1.143v-1.143z"></path>
<path d="M10.286 12.571h1.143v1.143h-1.143v-1.143z"></path>
<path d="M6.857 12.571h2.286v1.143h-2.286v-1.143z"></path>
<path d="M12.571 4.571v3.429h-9.143v-3.429h9.143zM13.714 3.429h-11.429v5.714h11.429v-5.714z"></path>
</symbol>
<symbol id="coh-icon-angle-double-left" viewBox="0 0 16 16">
<title>angle-double-left</title>
<path d="M9.36 13.717q0 0.179-0.137 0.316l-0.687 0.687q-0.137 0.137-0.316 0.137t-0.316-0.137l-6.404-6.404q-0.137-0.137-0.137-0.316t0.137-0.316l6.404-6.404q0.137-0.137 0.316-0.137t0.316 0.137l0.687 0.687q0.137 0.137 0.137 0.316t-0.137 0.316l-5.4 5.4 5.4 5.4q0.137 0.137 0.137 0.316zM14.637 13.717q0 0.179-0.137 0.316l-0.687 0.687q-0.137 0.137-0.316 0.137t-0.316-0.137l-6.404-6.404q-0.137-0.137-0.137-0.316t0.137-0.316l6.404-6.404q0.137-0.137 0.316-0.137t0.316 0.137l0.687 0.687q0.137 0.137 0.137 0.316t-0.137 0.316l-5.4 5.4 5.4 5.4q0.137 0.137 0.137 0.316z"></path>
</symbol>
<symbol id="coh-icon-animated-counter" viewBox="0 0 16 16">
<title>animated-counter</title>
<path d="M13.614 2.404c-1.496-1.496-3.489-2.321-5.607-2.321-0.004 0-0.004 0-0.007 0v2.143c0.004 0 0.004 0 0.007 0 3.189 0 5.786 2.596 5.786 5.786s-2.596 5.786-5.786 5.786c-3.189 0-5.786-2.593-5.786-5.782h-2.143c0 2.118 0.825 4.107 2.321 5.604s3.489 2.321 5.607 2.321c2.118 0 4.107-0.825 5.607-2.321 1.496-1.496 2.321-3.489 2.321-5.607s-0.825-4.111-2.321-5.607z"></path>
<path d="M4.064 5.711h3.65v0.843c-0.318 0.286-0.582 0.596-0.796 0.932-0.257 0.407-0.461 0.857-0.611 1.354-0.118 0.386-0.2 0.843-0.239 1.371h-1.246c0.1-0.736 0.254-1.35 0.464-1.85 0.211-0.496 0.543-1.029 1-1.596h-2.225v-1.054z"></path>
<path d="M8.743 5.711h2.971v0.996h-2.011l-0.107 0.675c0.139-0.064 0.279-0.114 0.414-0.146s0.271-0.050 0.404-0.050c0.45 0 0.814 0.136 1.096 0.407s0.421 0.614 0.421 1.029c0 0.289-0.071 0.571-0.218 0.839-0.143 0.268-0.35 0.471-0.614 0.614s-0.604 0.211-1.018 0.211c-0.296 0-0.55-0.029-0.764-0.086-0.211-0.057-0.393-0.139-0.539-0.254-0.15-0.111-0.268-0.239-0.361-0.379-0.093-0.143-0.168-0.318-0.229-0.529l1.264-0.139c0.032 0.204 0.104 0.357 0.214 0.461 0.114 0.107 0.246 0.157 0.404 0.157 0.175 0 0.318-0.064 0.432-0.196s0.171-0.329 0.171-0.593c0-0.268-0.057-0.464-0.171-0.589s-0.268-0.186-0.457-0.186c-0.121 0-0.239 0.029-0.35 0.089-0.086 0.043-0.175 0.121-0.275 0.232l-1.064-0.154 0.386-2.411z"></path>
</symbol>
<symbol id="coh-icon-ban" viewBox="0 0 16 16">
<title>ban</title>
<path d="M12.841 7.996q0-1.433-0.774-2.625l-6.71 6.701q1.219 0.792 2.643 0.792 0.988 0 1.882-0.387t1.544-1.037 1.032-1.553 0.383-1.891zM3.951 10.657l6.719-6.71q-1.201-0.81-2.67-0.81-1.317 0-2.43 0.65t-1.762 1.771-0.65 2.438q0 1.442 0.792 2.661zM14.835 7.996q0 1.397-0.543 2.67t-1.455 2.189-2.18 1.46-2.657 0.543-2.657-0.543-2.18-1.46-1.455-2.189-0.543-2.67 0.543-2.665 1.455-2.185 2.18-1.46 2.657-0.543 2.657 0.543 2.18 1.46 1.455 2.185 0.543 2.665z"></path>
</symbol>
<symbol id="coh-icon-breadcrumb" viewBox="0 0 16 16">
<title>breadcrumb</title>
<path d="M10.929 7.981l-2.539-2.275h-3.318l2.416 2.275v0.021l-2.416 2.275h3.319z"></path>
<path d="M16 7.981l-2.536-2.275h-3.319l2.416 2.275v0.021l-2.416 2.275h3.319z"></path>
<path d="M5.854 7.981l-2.536-2.275h-3.319l2.416 2.275v0.021l-2.416 2.275h3.319z"></path>
</symbol>
<symbol id="coh-icon-cancel" viewBox="0 0 16 16">
<title>cancel</title>
<path d="M11.232 12.85l-3.232-3.232-3.232 3.232-1.618-1.618 3.232-3.232-3.232-3.232 1.618-1.618 3.232 3.232 3.232-3.232 1.618 1.618-3.232 3.232 3.232 3.232-1.618 1.618z"></path>
</symbol>
<symbol id="coh-icon-cancel-circle" viewBox="0 0 16 16">
<title>cancel-circle</title>
<path d="M11.402 10.018q0-0.232-0.17-0.402l-1.616-1.616 1.616-1.616q0.17-0.17 0.17-0.402 0-0.241-0.17-0.411l-0.804-0.804q-0.17-0.17-0.411-0.17-0.232 0-0.402 0.17l-1.616 1.616-1.616-1.616q-0.17-0.17-0.402-0.17-0.241 0-0.411 0.17l-0.804 0.804q-0.17 0.17-0.17 0.411 0 0.232 0.17 0.402l1.616 1.616-1.616 1.616q-0.17 0.17-0.17 0.402 0 0.241 0.17 0.411l0.804 0.804q0.17 0.17 0.411 0.17 0.232 0 0.402-0.17l1.616-1.616 1.616 1.616q0.17 0.17 0.402 0.17 0.241 0 0.411-0.17l0.804-0.804q0.17-0.17 0.17-0.411zM14.857 8q0 1.866-0.92 3.442t-2.496 2.496-3.442 0.92-3.442-0.92-2.496-2.496-0.92-3.442 0.92-3.442 2.496-2.496 3.442-0.92 3.442 0.92 2.496 2.496 0.92 3.442z"></path>
</symbol>
<symbol id="coh-icon-caret-down" viewBox="0 0 16 16">
<title>caret-down</title>
<path d="M12.571 6q0 0.232-0.17 0.402l-4 4q-0.17 0.17-0.402 0.17t-0.402-0.17l-4-4q-0.17-0.17-0.17-0.402t0.17-0.402 0.402-0.17h8q0.232 0 0.402 0.17t0.17 0.402z"></path>
</symbol>
<symbol id="coh-icon-caret-left" viewBox="0 0 16 16">
<title>caret-left</title>
<path d="M5.429 8q0 0.232 0.17 0.402l4 4q0.17 0.17 0.402 0.17t0.402-0.17 0.17-0.402v-8q0-0.232-0.17-0.402t-0.402-0.17-0.402 0.17l-4 4q-0.17 0.17-0.17 0.402z"></path>
</symbol>
<symbol id="coh-icon-caret-right" viewBox="0 0 16 16">
<title>caret-right</title>
<path d="M10.571 8q0 0.232-0.17 0.402l-4 4q-0.17 0.17-0.402 0.17t-0.402-0.17-0.17-0.402v-8q0-0.232 0.17-0.402t0.402-0.17 0.402 0.17l4 4q0.17 0.17 0.17 0.402z"></path>
</symbol>
<symbol id="coh-icon-caret-up" viewBox="0 0 16 16">
<title>caret-up</title>
<path d="M12.571 10q0 0.232-0.17 0.402t-0.402 0.17h-8q-0.232 0-0.402-0.17t-0.17-0.402 0.17-0.402l4-4q0.17-0.17 0.402-0.17t0.402 0.17l4 4q0.17 0.17 0.17 0.402z"></path>
</symbol>
<symbol id="coh-icon-check" viewBox="0 0 16 16">
<title>check</title>
<path d="M15.254 4.911q0 0.374-0.262 0.637l-8.050 8.050q-0.262 0.262-0.637 0.262t-0.637-0.262l-4.662-4.662q-0.262-0.262-0.262-0.637t0.262-0.637l1.273-1.273q0.262-0.262 0.637-0.262t0.637 0.262l2.752 2.761 6.141-6.15q0.262-0.262 0.637-0.262t0.637 0.262l1.273 1.273q0.262 0.262 0.262 0.637z"></path>
</symbol>
<symbol id="coh-icon-check-circle" viewBox="0 0 16 16">
<title>check-circle</title>
<path d="M12.607 6.554q0-0.25-0.161-0.411l-0.813-0.804q-0.17-0.17-0.402-0.17t-0.402 0.17l-3.643 3.634-2.018-2.018q-0.17-0.17-0.402-0.17t-0.402 0.17l-0.813 0.804q-0.161 0.161-0.161 0.411 0 0.241 0.161 0.402l3.232 3.232q0.17 0.17 0.402 0.17 0.241 0 0.411-0.17l4.848-4.848q0.161-0.161 0.161-0.402zM14.857 8q0 1.866-0.92 3.442t-2.496 2.496-3.442 0.92-3.442-0.92-2.496-2.496-0.92-3.442 0.92-3.442 2.496-2.496 3.442-0.92 3.442 0.92 2.496 2.496 0.92 3.442z"></path>
</symbol>
<symbol id="coh-icon-circle-o" viewBox="0 0 16 16">
<title>circle-o</title>
<path d="M8 3.143q-1.321 0-2.438 0.652t-1.768 1.768-0.652 2.438 0.652 2.438 1.768 1.768 2.438 0.652 2.438-0.652 1.768-1.768 0.652-2.438-0.652-2.438-1.768-1.768-2.438-0.652zM14.857 8q0 1.866-0.92 3.442t-2.496 2.496-3.442 0.92-3.442-0.92-2.496-2.496-0.92-3.442 0.92-3.442 2.496-2.496 3.442-0.92 3.442 0.92 2.496 2.496 0.92 3.442z"></path>
</symbol>
<symbol id="coh-icon-citation" viewBox="0 0 16 16">
<title>citation</title>
<path d="M3.4 8.875c0 0.475-0.375 0.85-0.85 0.85h-1.7c-0.475 0-0.85-0.375-0.85-0.85v-3.125c0-1.25 1.025-2.275 2.275-2.275h0.275c0.15 0 0.275 0.125 0.275 0.275v0.575c0 0.15-0.125 0.275-0.275 0.275h-0.275c-0.625 0-1.125 0.5-1.125 1.125v0.15c0 0.225 0.2 0.425 0.425 0.425h1c0.475 0 0.85 0.375 0.85 0.85v1.725h-0.025zM7.375 8.875c0 0.475-0.375 0.85-0.85 0.85h-1.7c-0.475 0-0.85-0.375-0.85-0.85v-3.125c0-1.25 1.025-2.275 2.275-2.275h0.275c0.15 0 0.275 0.125 0.275 0.275v0.575c0 0.15-0.125 0.275-0.275 0.275h-0.275c-0.625 0-1.125 0.5-1.125 1.125v0.15c0 0.225 0.2 0.425 0.425 0.425h1c0.475 0 0.85 0.375 0.85 0.85-0.025 0.025-0.025 1.725-0.025 1.725z"></path>
<path d="M12.6 7.125c0-0.475 0.375-0.85 0.85-0.85h1.7c0.475 0 0.85 0.375 0.85 0.85v3.125c0 1.25-1.025 2.275-2.275 2.275h-0.275c-0.15 0-0.275-0.125-0.275-0.275v-0.575c0-0.15 0.125-0.275 0.275-0.275h0.275c0.625 0 1.125-0.5 1.125-1.125v-0.15c0-0.225-0.2-0.425-0.425-0.425h-1c-0.475 0-0.85-0.375-0.85-0.85 0.025-0.025 0.025-1.725 0.025-1.725zM8.625 7.125c0-0.475 0.375-0.85 0.85-0.85h1.7c0.475 0 0.85 0.375 0.85 0.85v3.125c0 1.25-1.025 2.275-2.275 2.275h-0.275c-0.15 0-0.275-0.125-0.275-0.275v-0.575c0-0.15 0.125-0.275 0.275-0.275h0.275c0.625 0 1.125-0.5 1.125-1.125v-0.15c0-0.225-0.2-0.425-0.425-0.425h-1c-0.475 0-0.85-0.375-0.85-0.85v-1.725c0 0 0.025 0 0.025 0z"></path>
</symbol>
<symbol id="coh-icon-clean" viewBox="0 0 16 16">
<title>clean</title>
<path d="M10.196 5.554c-2.421 0-4.393-1.971-4.393-4.393v-0.018h-0.25v0.018c0 2.421-1.971 4.393-4.393 4.393h-0.018v0.25h0.018c2.421 0 4.393 1.971 4.393 4.393v0.018h0.25v-0.018c0-2.421 1.971-4.393 4.393-4.393h0.018v-0.25h-0.018z"></path>
<path d="M14.821 9.464c-1.575 0-2.857-1.282-2.857-2.857v-0.036h-0.214v0.036c0 1.575-1.282 2.857-2.857 2.857h-0.036v0.211h0.036c1.575 0 2.857 1.282 2.857 2.857v0.036h0.211v-0.036c0-1.575 1.282-2.857 2.857-2.857h0.036v-0.211h-0.032z"></path>
<path d="M9.446 12.539c-1.132 0-2.054-0.921-2.054-2.054v-0.057h-0.211v0.054c0 1.132-0.921 2.054-2.054 2.054h-0.057v0.211h0.054c1.132 0 2.054 0.921 2.054 2.054v0.054h0.211v-0.054c0-1.132 0.921-2.054 2.054-2.054h0.054v-0.211h-0.050z"></path>
</symbol>
<symbol id="coh-icon-cog" viewBox="0 0 16 16">
<title>cog</title>
<path d="M10.286 8q0-0.946-0.67-1.616t-1.616-0.67-1.616 0.67-0.67 1.616 0.67 1.616 1.616 0.67 1.616-0.67 0.67-1.616zM14.857 7.027v1.982q0 0.107-0.071 0.205t-0.179 0.116l-1.652 0.25q-0.17 0.482-0.348 0.813 0.312 0.446 0.955 1.232 0.089 0.107 0.089 0.223t-0.080 0.205q-0.241 0.33-0.884 0.964t-0.839 0.634q-0.107 0-0.232-0.080l-1.232-0.964q-0.393 0.205-0.813 0.339-0.143 1.214-0.259 1.661-0.063 0.25-0.321 0.25h-1.982q-0.125 0-0.219-0.076t-0.103-0.192l-0.25-1.643q-0.438-0.143-0.804-0.33l-1.259 0.955q-0.089 0.080-0.223 0.080-0.125 0-0.223-0.098-1.125-1.018-1.473-1.5-0.063-0.089-0.063-0.205 0-0.107 0.071-0.205 0.134-0.188 0.455-0.594t0.482-0.629q-0.241-0.446-0.366-0.884l-1.634-0.241q-0.116-0.018-0.188-0.112t-0.071-0.21v-1.982q0-0.107 0.071-0.205t0.17-0.116l1.661-0.25q0.125-0.411 0.348-0.821-0.357-0.509-0.955-1.232-0.089-0.107-0.089-0.214 0-0.089 0.080-0.205 0.232-0.321 0.879-0.96t0.844-0.638q0.116 0 0.232 0.089l1.232 0.955q0.393-0.205 0.813-0.339 0.143-1.214 0.259-1.661 0.063-0.25 0.321-0.25h1.982q0.125 0 0.219 0.076t0.103 0.192l0.25 1.643q0.438 0.143 0.804 0.33l1.268-0.955q0.080-0.080 0.214-0.080 0.116 0 0.223 0.089 1.152 1.062 1.473 1.518 0.063 0.071 0.063 0.196 0 0.107-0.071 0.205-0.134 0.188-0.455 0.594t-0.482 0.629q0.232 0.446 0.366 0.875l1.634 0.25q0.116 0.018 0.188 0.112t0.071 0.21z"></path>
</symbol>
<symbol id="coh-icon-cohesion" viewBox="0 0 16 16">
<title>cohesion</title>
<path d="M12.425 8c0 1.036-0.839 1.875-1.875 1.875s-1.875-0.839-1.875-1.875c0-1.036 0.839-1.875 1.875-1.875s1.875 0.839 1.875 1.875z"></path>
<path d="M8.050 0c-4.425 0-8 3.575-8 8s3.55 7.975 7.975 7.975 7.975-3.55 7.975-7.975c0.025-4.425-3.55-8-7.95-8zM7.45 8.050l2.1-3c0.3-0.1 0.65-0.175 1-0.175 1.725 0 3.1 1.4 3.1 3.1 0 1.725-1.4 3.1-3.1 3.1-1.675 0.025-3.050-1.35-3.1-3.025zM5.45 9.875l-0.775 1.1c-1.3-0.375-2.25-1.575-2.25-2.975 0-1.725 1.4-3.1 3.1-3.1 1.025 0 1.95 0.5 2.525 1.275l-0.775 1.1c-0.275-0.675-0.95-1.175-1.75-1.175-1.050 0-1.875 0.85-1.875 1.875s0.8 1.85 1.8 1.9z"></path>
</symbol>
<symbol id="coh-icon-column" viewBox="0 0 16 16">
<title>column</title>
<path d="M14.857 2.286v11.429h-13.714v-11.429h13.714zM16 1.143h-16v13.714h16v-13.714z"></path>
<path d="M6.857 2.286h2.286v11.429h-2.286v-11.429z"></path>
<path d="M10.286 3.429h3.429v9.143h-3.429v-9.143z"></path>
</symbol>
<symbol id="coh-icon-component" viewBox="0 0 16 16">
<title>component</title>
<path d="M2.286 12.572h11.428v-9.144h-11.428v9.144zM4.571 5.714h6.858v4.572h-6.858v-4.572zM1.143 2.286h3.428v-1.143h-4.571v4.571h1.143v-3.428zM1.143 10.286h-1.143v4.571h4.571v-1.142h-3.428v-3.429zM11.429 1.143v1.143h3.428v3.428h1.143v-4.571h-4.571zM14.857 13.715h-3.428v1.142h4.571v-4.571h-1.143v3.429z"></path>
</symbol>
<symbol id="coh-icon-component-content" viewBox="0 0 16 16">
<title>component-content</title>
<path d="M1.143 2.286h3.429v-1.143h-4.571v4.571h1.143v-3.429zM1.143 10.286h-1.143v4.571h4.571v-1.143h-3.429v-3.429zM11.429 1.143v1.143h3.429v3.429h1.143v-4.571h-4.571zM14.857 13.714h-3.429v1.143h4.571v-4.571h-1.143v3.429zM8 12.571c-2.514 0-4.571-2.057-4.571-4.571s2.057-4.571 4.571-4.571 4.571 2.057 4.571 4.571-2.057 4.571-4.571 4.571zM11.543 8.914c0-0.229 0.114-0.571 0.114-0.914s0-0.686-0.114-0.914v0h-1.714c0 0.229 0 0.571 0 0.914s0 0.686 0 0.914v0h1.714zM11.2 9.829h-1.486c-0.114 0.571-0.229 1.143-0.457 1.6v0c0.8-0.229 1.486-0.914 1.943-1.6zM7.086 8.914h1.829c0-0.229 0-0.571 0-0.914s0-0.686 0-0.914v0h-1.829c0 0.229 0 0.571 0 0.914s0 0.686 0 0.914c0 0 0 0 0 0zM7.2 9.829c0.229 1.143 0.457 1.829 0.8 1.829s0.571-0.686 0.8-1.829h-1.6zM4.457 8.914h1.714c0-0.229 0-0.571 0-0.914s0-0.686 0-0.914v0h-1.714c0 0.229-0.114 0.571-0.114 0.914s0 0.686 0.114 0.914zM4.8 9.829c0.457 0.686 1.143 1.371 1.943 1.6v0c-0.114-0.457-0.343-1.029-0.457-1.6 0 0-1.486 0-1.486 0zM11.2 6.171c-0.457-0.686-1.143-1.371-1.943-1.6v0c0.229 0.457 0.343 0.914 0.457 1.6h1.486zM7.2 6.171h1.486c-0.114-1.143-0.457-1.829-0.686-1.829s-0.571 0.686-0.8 1.829zM4.8 6.171h1.486c0.114-0.571 0.229-1.143 0.457-1.6-0.8 0.229-1.486 0.914-1.943 1.6z"></path>
</symbol>
<symbol id="coh-icon-compress" viewBox="0 0 16 16">
<title>compress</title>
<path d="M8 8.581v4.069q0 0.236-0.173 0.409t-0.409 0.173-0.409-0.173l-1.308-1.308-3.015 3.015q-0.091 0.091-0.209 0.091t-0.209-0.091l-1.035-1.035q-0.091-0.091-0.091-0.209t0.091-0.209l3.015-3.015-1.308-1.308q-0.173-0.173-0.173-0.409t0.173-0.409 0.409-0.173h4.069q0.236 0 0.409 0.173t0.173 0.409zM14.857 2.478q0 0.118-0.091 0.209l-3.015 3.015 1.308 1.308q0.173 0.173 0.173 0.409t-0.173 0.409-0.409 0.173h-4.069q-0.236 0-0.409-0.173t-0.173-0.409v-4.069q0-0.236 0.173-0.409t0.409-0.173 0.409 0.173l1.308 1.308 3.015-3.015q0.091-0.091 0.209-0.091t0.209 0.091l1.035 1.035q0.091 0.091 0.091 0.209z"></path>
</symbol>
<symbol id="coh-icon-container-advanced" viewBox="0 0 16 16">
<title>container-advanced</title>
<path d="M14.857 2.286v11.429h-13.714v-11.429h13.714zM16 1.143h-16v13.714h16v-13.714z"></path>
<path d="M2.286 3.429h11.429v1.143h-11.429v-1.143z"></path>
<path d="M2.286 11.429h11.429v1.143h-11.429v-1.143z"></path>
<path d="M2.286 3.429h1.143v8h-1.143v-8z"></path>
<path d="M12.571 4.571h1.143v6.857h-1.143v-6.857z"></path>
</symbol>
<symbol id="coh-icon-container-basic" viewBox="0 0 16 16">
<title>container-basic</title>
<path d="M14.857 2.286v11.429h-13.714v-11.429h13.714zM16 1.143h-16v13.714h16v-13.714z"></path>
</symbol>
<symbol id="coh-icon-copy" viewBox="0 0 16 16">
<title>copy</title>
<path d="M15.143 3.429q0.357 0 0.607 0.25t0.25 0.607v10.857q0 0.357-0.25 0.607t-0.607 0.25h-8.571q-0.357 0-0.607-0.25t-0.25-0.607v-2.571h-4.857q-0.357 0-0.607-0.25t-0.25-0.607v-6q0-0.357 0.179-0.786t0.429-0.679l3.643-3.643q0.25-0.25 0.679-0.429t0.786-0.179h3.714q0.357 0 0.607 0.25t0.25 0.607v2.929q0.607-0.357 1.143-0.357h3.714zM10.286 5.33l-2.67 2.67h2.67v-2.67zM4.571 1.902l-2.67 2.67h2.67v-2.67zM6.321 7.679l2.821-2.821v-3.714h-3.429v3.714q0 0.357-0.25 0.607t-0.607 0.25h-3.714v5.714h4.571v-2.286q0-0.357 0.179-0.786t0.429-0.679zM14.857 14.857v-10.286h-3.429v3.714q0 0.357-0.25 0.607t-0.607 0.25h-3.714v5.714h8z"></path>
</symbol>
<symbol id="coh-icon-custom-element" viewBox="0 0 16 16">
<title>custom-element</title>
<path d="M0 1.143v13.714h16v-13.714h-16zM14.857 13.714h-13.714v-11.429h13.714v11.429z"></path>
<path d="M13.714 3.429h-11.429v9.143h11.429v-9.143zM6.857 8h-1.143v1.16h-1.143v1.101h-1.143v-1.107h1.143v-1.173h1.143v-1.125h-1.143v-1.131h-1.143v-1.143h1.143v1.131h1.143v1.143h1.143v1.143zM11.429 10.286h-3.429v-1.143h3.429v1.143z"></path>
</symbol>
<symbol id="coh-icon-desktop" viewBox="0 0 17 16">
<title>desktop</title>
<path d="M16 8.857v-7.429q0-0.116-0.085-0.201t-0.201-0.085h-14.286q-0.116 0-0.201 0.085t-0.085 0.201v7.429q0 0.116 0.085 0.201t0.201 0.085h14.286q0.116 0 0.201-0.085t0.085-0.201zM17.143 1.429v9.714q0 0.589-0.42 1.009t-1.009 0.42h-4.857q0 0.33 0.143 0.692t0.286 0.634 0.143 0.388q0 0.232-0.17 0.402t-0.402 0.17h-4.571q-0.232 0-0.402-0.17t-0.17-0.402q0-0.125 0.143-0.393t0.286-0.625 0.143-0.696h-4.857q-0.589 0-1.009-0.42t-0.42-1.009v-9.714q0-0.589 0.42-1.009t1.009-0.42h14.286q0.589 0 1.009 0.42t0.42 1.009z"></path>
</symbol>
<symbol id="coh-icon-drop-zone" viewBox="0 0 16 16">
<title>drop-zone</title>
<path d="M6.811 2.296h1.191v1.131h-1.191v-1.131z"></path>
<path d="M9.134 2.296h1.156v1.131h-1.156v-1.131z"></path>
<path d="M13.72 2.296v4.561h-3.43v-1.131h2.299v-2.299h-1.167v-1.131h2.299z"></path>
<path d="M5.716 5.726h1.156v1.131h-1.156v-1.131z"></path>
<path d="M8.003 5.726h1.191v1.131h-1.191v-1.131z"></path>
<path d="M3.453 3.427v2.299h1.131v1.131h-2.299v-4.561h3.43v1.131h-2.263z"></path>
<path d="M6.823 9.148h1.191v1.131h-1.191v-1.131z"></path>
<path d="M9.146 9.148h1.156v1.131h-1.156v-1.131z"></path>
<path d="M13.731 9.148v4.561h-3.43v-1.131h2.299v-2.299h-1.167v-1.131h2.299z"></path>
<path d="M5.727 12.578h1.156v1.131h-1.156v-1.131z"></path>
<path d="M8.014 12.578h1.191v1.131h-1.191v-1.131z"></path>
<path d="M3.464 10.279v2.299h1.131v1.131h-2.299v-4.561h3.43v1.131h-2.263z"></path>
<path d="M14.839 0h-14.839v16h16v-16h-1.161zM14.839 14.839h-13.679v-13.679h13.679v13.679z"></path>
</symbol>
<symbol id="coh-icon-drupal-block" viewBox="0 0 16 16">
<title>drupal-block</title>
<path d="M0 1.143h16v2.296h-16v-2.296z"></path>
<path d="M0 4.571v10.286h16v-10.286h-16zM14.857 9.143h-4.571v-3.429h4.571v3.429z"></path>
</symbol>
<symbol id="coh-icon-drupal-field" viewBox="0 0 16 16">
<title>drupal-field</title>
<path d="M0 1.143v13.714h16v-13.714h-16zM14.857 13.714h-13.714v-11.429h13.714v11.429z"></path>
<path d="M2.286 5.714h11.429v1.143h-11.429v-1.143z"></path>
<path d="M2.286 6.857h1.143v3.429h-1.143v-3.429z"></path>
<path d="M2.286 9.143h11.429v1.143h-11.429v-1.143z"></path>
<path d="M12.571 6.857h1.143v2.286h-1.143v-2.286z"></path>
</symbol>
<symbol id="coh-icon-drupal-region" viewBox="0 0 16 16">
<title>drupal-region</title>
<path d="M0 1.143h16v2.296h-16v-2.296z"></path>
<path d="M0 4.571h10.286v10.286h-10.286v-10.286z"></path>
<path d="M11.429 4.571v10.286h4.571v-10.286h-4.571zM14.857 13.714h-2.286v-8h2.286v8z"></path>
</symbol>
<symbol id="coh-icon-drupal-view-container" viewBox="0 0 16 16">
<title>drupal-view-container</title>
<path d="M14.857 3.429v10.286h-13.714v-10.286h13.714zM16 2.286h-16v12.571h16v-12.571z"></path>
<path d="M2.286 9.143h11.429v1.143h-11.429v-1.143z"></path>
<path d="M2.286 4.571h11.429v1.143h-11.429v-1.143z"></path>
<path d="M2.286 11.429h11.429v1.143h-11.429v-1.143z"></path>
<path d="M2.286 6.857h11.429v1.143h-11.429v-1.143z"></path>
</symbol>
<symbol id="coh-icon-drupal-view-content" viewBox="0 0 16 16">
<title>drupal-view-content</title>
<path d="M2.286 2.286h11.44v1.154h-11.44v-1.154z"></path>
<path d="M2.274 4.571h11.44v1.154h-11.44v-1.154z"></path>
<path d="M2.286 6.857h11.44v1.154h-11.44v-1.154z"></path>
<path d="M2.274 9.137h11.44v1.154h-11.44v-1.154z"></path>
<path d="M2.286 11.417h11.44v1.154h-11.44v-1.154z"></path>
</symbol>
<symbol id="coh-icon-drupal-view-item" viewBox="0 0 16 16">
<title>drupal-view-item</title>
<path d="M2.286 9.143h11.429v1.143h-11.429v-1.143z"></path>
<path d="M2.286 3.429h11.429v1.143h-11.429v-1.143z"></path>
<path d="M2.286 11.429h11.429v1.143h-11.429v-1.143z"></path>
<path d="M1.143 5.714h13.714v2.286h-13.714v-2.286z"></path>
</symbol>
<symbol id="coh-icon-edit" viewBox="0 0 16 16">
<title>edit</title>
<path d="M7.929 10.571l1.036-1.036-1.357-1.357-1.036 1.036v0.5h0.857v0.857h0.5zM11.857 4.143q-0.143-0.143-0.295 0.009l-3.125 3.125q-0.152 0.152-0.009 0.295t0.295-0.009l3.125-3.125q0.152-0.152 0.009-0.295zM12.571 9.446v1.696q0 1.063-0.754 1.817t-1.817 0.754h-7.429q-1.063 0-1.817-0.754t-0.754-1.817v-7.429q0-1.063 0.754-1.817t1.817-0.754h7.429q0.563 0 1.045 0.223 0.134 0.063 0.161 0.205 0.027 0.152-0.080 0.259l-0.438 0.438q-0.125 0.125-0.286 0.071-0.205-0.054-0.402-0.054h-7.429q-0.589 0-1.009 0.42t-0.42 1.009v7.429q0 0.589 0.42 1.009t1.009 0.42h7.429q0.589 0 1.009-0.42t0.42-1.009v-1.125q0-0.116 0.080-0.196l0.571-0.571q0.134-0.134 0.313-0.063t0.179 0.259zM11.714 2.857l2.571 2.571-6 6h-2.571v-2.571zM15.679 4.036l-0.821 0.821-2.571-2.571 0.821-0.821q0.25-0.25 0.607-0.25t0.607 0.25l1.357 1.357q0.25 0.25 0.25 0.607t-0.25 0.607z"></path>
</symbol>
<symbol id="coh-icon-ellipsis" viewBox="0 0 13 16">
<title>ellipsis</title>
<path d="M3.429 6.571v1.714q0 0.357-0.25 0.607t-0.607 0.25h-1.714q-0.357 0-0.607-0.25t-0.25-0.607v-1.714q0-0.357 0.25-0.607t0.607-0.25h1.714q0.357 0 0.607 0.25t0.25 0.607zM8 6.571v1.714q0 0.357-0.25 0.607t-0.607 0.25h-1.714q-0.357 0-0.607-0.25t-0.25-0.607v-1.714q0-0.357 0.25-0.607t0.607-0.25h1.714q0.357 0 0.607 0.25t0.25 0.607zM12.571 6.571v1.714q0 0.357-0.25 0.607t-0.607 0.25h-1.714q-0.357 0-0.607-0.25t-0.25-0.607v-1.714q0-0.357 0.25-0.607t0.607-0.25h1.714q0.357 0 0.607 0.25t0.25 0.607z"></path>
</symbol>
<symbol id="coh-icon-entity-reference" viewBox="0 0 16 16">
<title>entity-reference</title>
<path d="M15.643 3.429h-6.5v-2.286h-9.143v6.857h2.286v6.857h13.714v-11.429h-0.357zM1.143 2.286l6.857-0.036v4.571l-6.857 0.036v-4.571zM14.857 13.714h-11.429v-5.714h5.714v-3.429h5.714v9.143z"></path>
<path d="M9.146 5.718h1.157v1.132h-1.157v-1.132z"></path>
<path d="M13.696 5.718v6.85h-3.396v-1.132h2.264v-4.586h-1.132v-1.132z"></path>
<path d="M8.014 11.436h1.193v1.132h-1.193v-1.132z"></path>
<path d="M5.75 8.029v3.407h1.132v1.132h-2.3v-4.957z"></path>
</symbol>
<symbol id="coh-icon-exclamation-triangle" viewBox="0 0 16 16">
<title>exclamation-triangle</title>
<path d="M9.143 12.277v-1.696q0-0.125-0.085-0.21t-0.201-0.085h-1.714q-0.116 0-0.201 0.085t-0.085 0.21v1.696q0 0.125 0.085 0.21t0.201 0.085h1.714q0.116 0 0.201-0.085t0.085-0.21zM9.125 8.938l0.161-4.098q0-0.107-0.089-0.17-0.116-0.098-0.214-0.098h-1.964q-0.098 0-0.214 0.098-0.089 0.063-0.089 0.188l0.152 4.080q0 0.089 0.089 0.147t0.214 0.058h1.652q0.125 0 0.21-0.058t0.094-0.147zM9 0.598l6.857 12.571q0.313 0.563-0.018 1.125-0.152 0.259-0.415 0.411t-0.567 0.152h-13.714q-0.304 0-0.567-0.152t-0.415-0.411q-0.33-0.563-0.018-1.125l6.857-12.571q0.152-0.277 0.42-0.438t0.58-0.161 0.58 0.161 0.42 0.438z"></path>
</symbol>
<symbol id="coh-icon-expand" viewBox="0 0 16 16">
<title>expand</title>
<path d="M7.884 9.429q0 0.116-0.089 0.205l-2.964 2.964 1.286 1.286q0.17 0.17 0.17 0.402t-0.17 0.402-0.402 0.17h-4q-0.232 0-0.402-0.17t-0.17-0.402v-4q0-0.232 0.17-0.402t0.402-0.17 0.402 0.17l1.286 1.286 2.964-2.964q0.089-0.089 0.205-0.089t0.205 0.089l1.018 1.018q0.089 0.089 0.089 0.205zM14.857 1.714v4q0 0.232-0.17 0.402t-0.402 0.17-0.402-0.17l-1.286-1.286-2.964 2.964q-0.089 0.089-0.205 0.089t-0.205-0.089l-1.018-1.018q-0.089-0.089-0.089-0.205t0.089-0.205l2.964-2.964-1.286-1.286q-0.17-0.17-0.17-0.402t0.17-0.402 0.402-0.17h4q0.232 0 0.402 0.17t0.17 0.402z"></path>
</symbol>
<symbol id="coh-icon-external-link-square" viewBox="0 0 14 16">
<title>external-link-square</title>
<path d="M11.429 8.286v-4.286c0-0.313-0.259-0.571-0.571-0.571h-4.286c-0.232 0-0.438 0.143-0.527 0.348-0.089 0.214-0.045 0.464 0.125 0.625l1.286 1.286-4.768 4.768c-0.223 0.223-0.223 0.58 0 0.804l0.911 0.911c0.223 0.223 0.58 0.223 0.804 0l4.768-4.768 1.286 1.286c0.107 0.116 0.25 0.17 0.402 0.17 0.071 0 0.152-0.018 0.223-0.045 0.205-0.089 0.348-0.295 0.348-0.527zM13.714 3.714v8.571c0 1.42-1.152 2.571-2.571 2.571h-8.571c-1.42 0-2.571-1.152-2.571-2.571v-8.571c0-1.42 1.152-2.571 2.571-2.571h8.571c1.42 0 2.571 1.152 2.571 2.571z"></path>
</symbol>
<symbol id="coh-icon-eye" viewBox="0 0 16 16">
<title>eye</title>
<path d="M14.857 8q-1.357-2.107-3.402-3.152 0.545 0.929 0.545 2.009 0 1.652-1.174 2.826t-2.826 1.174-2.826-1.174-1.174-2.826q0-1.080 0.545-2.009-2.045 1.045-3.402 3.152 1.188 1.83 2.978 2.915t3.879 1.085 3.879-1.085 2.978-2.915zM8.429 4.571q0-0.179-0.125-0.304t-0.304-0.125q-1.116 0-1.915 0.799t-0.799 1.915q0 0.179 0.125 0.304t0.304 0.125 0.304-0.125 0.125-0.304q0-0.768 0.545-1.313t1.313-0.545q0.179 0 0.304-0.125t0.125-0.304zM16 8q0 0.304-0.179 0.616-1.25 2.054-3.362 3.29t-4.46 1.237-4.46-1.241-3.362-3.286q-0.179-0.313-0.179-0.616t0.179-0.616q1.25-2.045 3.362-3.286t4.46-1.241 4.46 1.241 3.362 3.286q0.179 0.313 0.179 0.616z"></path>
</symbol>
<symbol id="coh-icon-eye-external" viewBox="0 0 16 16">
<title>eye-external</title>
<path d="M15.968 0.632v3.607c0 0.139-0.050 0.261-0.154 0.361-0.104 0.104-0.221 0.154-0.361 0.154s-0.261-0.050-0.361-0.154l-1.161-1.161-1.089 1.089c-0.054 0.054-0.114 0.082-0.186 0.082s-0.132-0.029-0.186-0.082l-0.918-0.918c-0.054-0.054-0.082-0.114-0.082-0.186s0.029-0.132 0.082-0.186l1.089-1.086-1.161-1.161c-0.104-0.104-0.154-0.221-0.154-0.361s0.050-0.261 0.154-0.361 0.221-0.154 0.361-0.154h3.607c0.139 0 0.261 0.050 0.361 0.154 0.107 0.1 0.157 0.221 0.157 0.361v0z"></path>
<path d="M15.821 7.386c-0.593-0.968-1.332-1.804-2.214-2.5l-0.818 0.818c0.786 0.614 1.475 1.382 2.068 2.3-0.793 1.221-1.786 2.193-2.979 2.914s-2.486 1.082-3.879 1.082-2.686-0.361-3.879-1.086-2.186-1.693-2.979-2.914c0.904-1.404 2.039-2.457 3.4-3.15-0.361 0.618-0.543 1.286-0.543 2.007 0 1.1 0.393 2.043 1.175 2.825s1.725 1.175 2.825 1.175 2.043-0.393 2.825-1.175c0.782-0.782 1.175-1.725 1.175-2.825 0-0.486-0.082-0.95-0.25-1.389l-1.264-1.264c-0.075-0.075-0.114-0.164-0.114-0.264s0.039-0.189 0.114-0.264l0.336-0.336c-0.907-0.321-1.85-0.482-2.821-0.482-1.564 0-3.054 0.414-4.461 1.243s-2.529 1.921-3.361 3.286c-0.118 0.207-0.179 0.414-0.179 0.614 0 0.204 0.061 0.407 0.179 0.614 0.832 1.364 1.954 2.457 3.361 3.286s2.893 1.243 4.461 1.243c1.564 0 3.054-0.411 4.461-1.236s2.529-1.921 3.361-3.289c0.118-0.207 0.179-0.414 0.179-0.614 0-0.207-0.061-0.411-0.179-0.618zM6.086 4.943c0.532-0.532 1.171-0.8 1.914-0.8 0.118 0 0.221 0.043 0.304 0.125s0.125 0.186 0.125 0.304c0 0.118-0.043 0.221-0.125 0.304s-0.186 0.125-0.304 0.125c-0.511 0-0.95 0.182-1.314 0.543-0.361 0.364-0.543 0.804-0.543 1.314 0 0.118-0.043 0.221-0.125 0.304s-0.186 0.125-0.304 0.125c-0.118 0-0.221-0.043-0.304-0.125s-0.125-0.186-0.125-0.304c0-0.743 0.268-1.382 0.8-1.914z"></path>
</symbol>
<symbol id="coh-icon-eye-slash" viewBox="0 0 16 16">
<title>eye-slash</title>
<path d="M4.955 11.92l0.696-1.259c-1.036-0.75-1.652-1.955-1.652-3.232 0-0.705 0.188-1.402 0.545-2.009-1.393 0.714-2.554 1.839-3.402 3.152 0.929 1.438 2.241 2.643 3.813 3.348zM8.429 5.143c0-0.232-0.196-0.429-0.429-0.429-1.491 0-2.714 1.223-2.714 2.714 0 0.232 0.196 0.429 0.429 0.429s0.429-0.196 0.429-0.429c0-1.027 0.839-1.857 1.857-1.857 0.232 0 0.429-0.196 0.429-0.429zM11.67 3.438c0 0.018 0 0.063-0.009 0.080-1.884 3.366-3.75 6.75-5.634 10.116l-0.438 0.795c-0.054 0.089-0.152 0.143-0.25 0.143-0.161 0-1.009-0.518-1.196-0.625-0.089-0.054-0.143-0.143-0.143-0.25 0-0.143 0.304-0.625 0.393-0.777-1.732-0.786-3.188-2.125-4.214-3.732-0.116-0.179-0.179-0.393-0.179-0.616 0-0.214 0.063-0.438 0.179-0.616 1.768-2.714 4.527-4.527 7.821-4.527 0.536 0 1.080 0.054 1.607 0.152l0.482-0.866c0.054-0.089 0.143-0.143 0.25-0.143 0.161 0 1 0.518 1.188 0.625 0.089 0.054 0.143 0.143 0.143 0.241zM12 7.429c0 1.661-1.027 3.143-2.571 3.732l2.5-4.482c0.045 0.25 0.071 0.5 0.071 0.75zM16 8.571c0 0.232-0.063 0.42-0.179 0.616-0.277 0.455-0.625 0.893-0.973 1.295-1.75 2.009-4.161 3.232-6.848 3.232l0.661-1.179c2.598-0.223 4.804-1.804 6.196-3.964-0.661-1.027-1.509-1.929-2.518-2.625l0.563-1c1.107 0.741 2.223 1.857 2.92 3.009 0.116 0.196 0.179 0.384 0.179 0.616z"></path>
</symbol>
<symbol id="coh-icon-field-group" viewBox="0 0 16 16">
<title>field-group</title>
<path d="M0 1.143v13.714h16v-13.714h-16zM14.857 13.714h-13.714v-9.143h13.714v9.143z"></path>
<path d="M2.286 5.714h11.429v2.286h-11.429v-2.286z"></path>
<path d="M2.286 11.429h11.429v1.143h-11.429v-1.143z"></path>
<path d="M2.286 8h1.143v3.429h-1.143v-3.429z"></path>
<path d="M12.571 8h1.143v3.429h-1.143v-3.429z"></path>
</symbol>
<symbol id="coh-icon-filter" viewBox="0 0 16 16">
<title>filter</title>
<path d="M14.797 1.534q0.165 0.399-0.136 0.681l-4.794 4.794v7.215q0 0.408-0.379 0.574-0.126 0.049-0.243 0.049-0.263 0-0.438-0.185l-2.489-2.489q-0.185-0.185-0.185-0.438v-4.726l-4.794-4.794q-0.301-0.282-0.136-0.681 0.165-0.379 0.574-0.379h12.446q0.408 0 0.574 0.379z"></path>
</symbol>
<symbol id="coh-icon-filter-submit" viewBox="0 0 16 16">
<title>filter-submit</title>
<path d="M14.639 11.607c0 0.003 0 0.006 0 0.009 0 0.141-0.058 0.269-0.152 0.359l-0 0-2.682 2.668c-0.096 0.094-0.226 0.151-0.371 0.151-0.001 0-0.003 0-0.004-0h0c-0.003 0-0.006 0-0.010 0-0.141 0-0.269-0.058-0.361-0.151l-0-0-2.683-2.668c-0.096-0.089-0.157-0.216-0.157-0.357 0-0.004 0-0.008 0-0.012l-0 0.001c-0-0.002-0-0.004-0-0.007 0-0.144 0.060-0.274 0.156-0.366l0-0 0.304-0.306c0.095-0.094 0.226-0.151 0.371-0.151 0.001 0 0.003 0 0.004 0h-0c0.003-0 0.007-0 0.011-0 0.141 0 0.269 0.058 0.361 0.151l0 0 1.211 1.203v-2.881c-0-0.001-0-0.003-0-0.005 0-0.143 0.060-0.272 0.156-0.363l0-0c0.093-0.096 0.222-0.155 0.366-0.155 0.002 0 0.003 0 0.005 0h0.527c0.001-0 0.003-0 0.004-0 0.144 0 0.274 0.060 0.366 0.155l0 0c0.097 0.092 0.157 0.221 0.157 0.365 0 0.001 0 0.002-0 0.004v-0 2.881l1.211-1.202c0.092-0.094 0.22-0.152 0.361-0.152 0.003 0 0.007 0 0.010 0h-0c0.002-0 0.004-0 0.005-0 0.144 0 0.275 0.058 0.371 0.152l-0-0 0.309 0.307c0.094 0.094 0.151 0.224 0.151 0.368 0 0.001 0 0.003-0 0.004v-0z"></path>
<path d="M11.187 1.456c0.080 0.192 0.048 0.352-0.096 0.496l-3.451 3.453v5.195c0 0.004 0 0.009 0 0.014 0 0.181-0.111 0.336-0.269 0.401l-0.003 0.001c-0.043 0.021-0.094 0.033-0.148 0.033-0.010 0-0.020-0-0.029-0.001l0.001 0c-0.124-0.001-0.236-0.050-0.32-0.128l0 0-1.789-1.79c-0.079-0.075-0.128-0.181-0.128-0.298 0-0.008 0-0.016 0.001-0.024l-0 0.001v-3.404l-3.451-3.453c-0.143-0.128-0.176-0.304-0.096-0.496 0.080-0.176 0.208-0.272 0.399-0.272h8.962c0.208 0 0.335 0.096 0.415 0.272z"></path>
</symbol>
<symbol id="coh-icon-firefox" viewBox="0 0 16 16">
<title>firefox</title>
<path d="M8.063 16q-2.527 0-4.504-1.344t-2.942-3.558q-0.518-1.17-0.598-2.688t0.232-2.969 0.991-2.786 1.598-2.165l-0.098 2.509q0.098-0.125 0.607-0.138t0.625 0.138q0.375-0.723 1.433-1.232t2.094-0.527q-0.482 0.402-1.067 1.326t-0.522 1.46q0.223 0.071 0.558 0.121t0.563 0.067 0.607 0.036 0.451 0.027q0.134 0.045 0.085 0.406t-0.272 0.674q-0.045 0.063-0.147 0.165t-0.504 0.317-0.902 0.304l0.134 1.688-1.241-0.598q-0.161 0.384-0.067 0.728t0.321 0.594 0.585 0.371 0.723 0.058q0.455-0.080 0.875-0.308t0.746-0.402 0.656-0.156q0.545 0.036 0.799 0.295t0.174 0.58q-0.009 0.018-0.022 0.049t-0.076 0.112-0.161 0.138-0.281 0.094-0.415 0.009q-0.536 0.848-1.29 1.21t-1.871 0.263q0.661 0.545 1.451 0.737t1.504 0.054 1.379-0.464 1.143-0.781 0.719-0.929q0.384-0.813 0.348-1.719t-0.335-1.683-0.701-1.116q0.777 0.339 1.223 0.71t0.688 1.004q0.134-1.518-0.513-3.063t-1.871-2.536q2.366 0.688 3.679 2.496t1.348 4.621q0.018 1.134-0.362 2.277t-1.103 2.125-1.688 1.75-2.21 1.21-2.576 0.442z"></path>
</symbol>
<symbol id="coh-icon-font-picker" viewBox="0 0 15 16">
<title>font-picker</title>
<path d="M6.473 4.991l-1.518 4.018c0.884 0.009 1.768 0.036 2.652 0.036 0.17 0 0.339-0.009 0.509-0.018-0.464-1.357-1.009-2.741-1.643-4.036zM0 14.857l0.018-0.705c0.839-0.259 1.75-0.080 2.125-1.045l2.116-5.5 2.5-6.464h1.143c0.036 0.063 0.071 0.125 0.098 0.188l1.83 4.286c0.67 1.58 1.286 3.179 1.964 4.75 0.402 0.929 0.714 1.884 1.161 2.795 0.063 0.143 0.188 0.411 0.313 0.509 0.295 0.232 1.116 0.286 1.536 0.446 0.027 0.17 0.054 0.339 0.054 0.509 0 0.080-0.009 0.152-0.009 0.232-1.134 0-2.268-0.143-3.402-0.143-1.17 0-2.339 0.098-3.509 0.134 0-0.232 0.009-0.464 0.036-0.696l1.17-0.25c0.241-0.054 0.714-0.116 0.714-0.446 0-0.321-1.152-2.973-1.295-3.339l-4.018-0.018c-0.232 0.518-1.134 2.857-1.134 3.196 0 0.688 1.313 0.714 1.821 0.786 0.009 0.17 0.009 0.339 0.009 0.518 0 0.080-0.009 0.161-0.018 0.241-1.036 0-2.080-0.179-3.116-0.179-0.125 0-0.304 0.054-0.429 0.071-0.563 0.098-1.116 0.125-1.679 0.125z"></path>
</symbol>
<symbol id="coh-icon-gallery" viewBox="0 0 16 16">
<title>gallery</title>
<path d="M6.025 14.275c0 0.538-0.437 0.975-0.975 0.975s-0.975-0.437-0.975-0.975c0-0.538 0.437-0.975 0.975-0.975s0.975 0.437 0.975 0.975z"></path>
<path d="M11.95 14.275c0 0.538-0.437 0.975-0.975 0.975s-0.975-0.437-0.975-0.975c0-0.538 0.437-0.975 0.975-0.975s0.975 0.437 0.975 0.975z"></path>
<path d="M15.975 1.35v9.625c0 0.35-0.125 0.65-0.4 0.9-0.25 0.25-0.575 0.375-0.95 0.375h-13.275c-0.375 0-0.675-0.125-0.95-0.375-0.25-0.25-0.4-0.55-0.4-0.9v-9.625c0-0.35 0.125-0.65 0.4-0.9 0.25-0.25 0.575-0.375 0.95-0.375h13.3c0.375 0 0.675 0.125 0.95 0.375 0.25 0.25 0.375 0.55 0.375 0.9zM14.65 1.1h-13.3c-0.075 0-0.125 0.025-0.175 0.075-0.075 0.050-0.1 0.1-0.1 0.175v9.625c0 0.075 0.025 0.125 0.075 0.175s0.125 0.075 0.175 0.075h13.3c0.075 0 0.125-0.025 0.175-0.075s0.075-0.1 0.075-0.175v-9.625c0-0.075-0.025-0.125-0.075-0.175s-0.075-0.075-0.15-0.075zM4.875 2.55c0.3 0.3 0.475 0.65 0.475 1.075s-0.15 0.775-0.475 1.075c-0.3 0.3-0.7 0.45-1.125 0.45s-0.825-0.15-1.125-0.45c-0.3-0.3-0.475-0.65-0.475-1.075s0.15-0.775 0.475-1.075 0.7-0.45 1.125-0.45c0.425 0 0.8 0.15 1.125 0.45zM13.85 6.675v3.55h-11.7v-1.525l2.65-2.525 1.325 1.275 4.25-4.050 3.475 3.275z"></path>
<path d="M8.975 14.275c0 0.538-0.437 0.975-0.975 0.975s-0.975-0.437-0.975-0.975c0-0.538 0.437-0.975 0.975-0.975s0.975 0.437 0.975 0.975z"></path>
</symbol>
<symbol id="coh-icon-gradient-picker" viewBox="0 0 16 16">
<title>gradient-picker</title>
<path d="M14.857 2.331h1.143v11.383h-1.143v-11.383z"></path>
<path d="M11.429 2.286h2.286v11.429h-2.286v-11.429z"></path>
<path d="M6.857 2.286h3.429v11.429h-3.429v-11.429z"></path>
<path d="M0 2.286h5.714v11.429h-5.714v-11.429z"></path>
</symbol>
<symbol id="coh-icon-group-accordion" viewBox="0 0 16 16">
<title>group-accordion</title>
<path d="M0 1.143v13.714h16v-13.714h-16zM4.571 2.286l-1.618 1.618-1.614-1.618h3.232zM14.857 13.714h-13.714v-8h13.714v8z"></path>
</symbol>
<symbol id="coh-icon-guides-boxed" viewBox="0 0 16 16">
<title>guides-boxed</title>
<path d="M8.571 3.429h2.286v9.143h-2.286v-9.143zM5.143 3.429h2.286v9.143h-2.286v-9.143zM1.714 3.429h2.286v9.143h-2.286v-9.143zM12 3.429h2.286v9.143h-2.286v-9.143z"></path>
<path d="M15.429 2.286v11.429h-14.857v-11.429h14.857zM16 1.714h-16v12.571h16v-12.571z"></path>
</symbol>
<symbol id="coh-icon-guides-fluid" viewBox="0 0 16 16">
<title>guides-fluid</title>
<path d="M8.571 3.429h2.286v9.143h-2.286v-9.143zM5.143 3.429h2.286v9.143h-2.286v-9.143zM1.714 3.429h2.286v9.143h-2.286v-9.143zM12 3.429h2.286v9.143h-2.286v-9.143z"></path>
</symbol>
<symbol id="coh-icon-hand-up" viewBox="0 0 14 16">
<title>hand-up</title>
<path d="M11.429 14.286c0-0.313-0.259-0.571-0.571-0.571s-0.571 0.259-0.571 0.571 0.259 0.571 0.571 0.571 0.571-0.259 0.571-0.571zM12.571 7.464c0-1.009-0.411-1.688-1.491-1.688-0.17 0-0.339 0.018-0.5 0.045-0.205-0.375-0.714-0.58-1.125-0.58-0.214 0-0.429 0.054-0.616 0.161-0.286-0.304-0.643-0.473-1.063-0.473-0.286 0-0.705 0.125-0.92 0.313v-2.955c0-0.616-0.527-1.143-1.143-1.143-0.607 0-1.143 0.545-1.143 1.143v5.143c-0.563 0-1.143-0.857-2.286-0.857-0.857 0-1.143 0.67-1.143 1.429 0 0.25 1.036 0.705 1.241 0.804 0.196 0.107 0.393 0.214 0.58 0.33 0.473 0.295 0.884 0.634 1.295 1 0.652 0.571 1.455 1.205 1.455 2.152v0.286h5.714v-0.286c0-1.563 1.143-3.089 1.143-4.821zM13.714 7.42c0 1-0.277 1.946-0.616 2.875-0.196 0.545-0.527 1.429-0.527 1.991v2.571c0 0.634-0.509 1.143-1.143 1.143h-5.714c-0.634 0-1.143-0.509-1.143-1.143v-2.571c0-0.429-0.768-1.036-1.063-1.295-0.366-0.321-0.732-0.625-1.152-0.893-0.83-0.518-2.357-0.902-2.357-2.098 0-1.42 0.777-2.571 2.286-2.571 0.393 0 0.777 0.063 1.143 0.196v-3.339c0-1.232 1.045-2.286 2.277-2.286 1.25 0 2.295 1.036 2.295 2.286v1.509c0.375 0.027 0.732 0.143 1.063 0.33 0.125-0.018 0.259-0.027 0.384-0.027 0.571 0 1.143 0.188 1.589 0.536 1.688-0.018 2.679 1.134 2.679 2.786z"></path>
</symbol>
<symbol id="coh-icon-heading" viewBox="0 0 16 16">
<title>heading</title>
<path d="M0 1.143h16v4.571h-16v-4.571z"></path>
<path d="M0 6.857h9.143v4.571h-9.143v-4.571z"></path>
</symbol>
<symbol id="coh-icon-helper" viewBox="0 0 18 16">
<title>helper</title>
<path d="M18.286 3.429h-1.143v9.143h1.143v3.429h-3.429v-1.143h-11.429v1.143h-3.429v-3.429h1.143v-9.143h-1.143v-3.429h3.429v1.143h11.429v-1.143h3.429v3.429zM16 1.143v1.143h1.143v-1.143h-1.143zM1.143 1.143v1.143h1.143v-1.143h-1.143zM2.286 14.857v-1.143h-1.143v1.143h1.143zM14.857 13.714v-1.143h1.143v-9.143h-1.143v-1.143h-11.429v1.143h-1.143v9.143h1.143v1.143h11.429zM17.143 14.857v-1.143h-1.143v1.143h1.143zM11.429 5.714h3.429v6.857h-8v-2.286h-3.429v-6.857h8v2.286zM4.571 9.143h5.714v-4.571h-5.714v4.571zM13.714 11.429v-4.571h-2.286v3.429h-3.429v1.143h5.714z"></path>
</symbol>
<symbol id="coh-icon-iframe" viewBox="0 0 16 16">
<title>iframe</title>
<path d="M14.857 2.286v11.429h-13.714v-11.429h13.714zM16 1.143h-16v13.714h16v-13.714z"></path>
<path d="M11.429 5.714h2.286v4.571h-2.286v-4.571z"></path>
<path d="M11.429 3.429h2.286v1.143h-2.286v-1.143z"></path>
<path d="M11.429 11.429h2.286v1.143h-2.286v-1.143z"></path>
</symbol>
<symbol id="coh-icon-image" viewBox="0 0 17 16">
<title>image</title>
<path d="M5.714 5.143q0 0.714-0.5 1.214t-1.214 0.5-1.214-0.5-0.5-1.214 0.5-1.214 1.214-0.5 1.214 0.5 0.5 1.214zM14.857 8.571v4h-12.571v-1.714l2.857-2.857 1.429 1.429 4.571-4.571zM15.714 2.286h-14.286q-0.116 0-0.201 0.085t-0.085 0.201v10.857q0 0.116 0.085 0.201t0.201 0.085h14.286q0.116 0 0.201-0.085t0.085-0.201v-10.857q0-0.116-0.085-0.201t-0.201-0.085zM17.143 2.571v10.857q0 0.589-0.42 1.009t-1.009 0.42h-14.286q-0.589 0-1.009-0.42t-0.42-1.009v-10.857q0-0.589 0.42-1.009t1.009-0.42h14.286q0.589 0 1.009 0.42t0.42 1.009z"></path>
</symbol>
<symbol id="coh-icon-info-circle" viewBox="0 0 16 16">
<title>info-circle</title>
<path d="M10.286 12.286v-1.429q0-0.125-0.080-0.205t-0.205-0.080h-0.857v-4.571q0-0.125-0.080-0.205t-0.205-0.080h-2.857q-0.125 0-0.205 0.080t-0.080 0.205v1.429q0 0.125 0.080 0.205t0.205 0.080h0.857v2.857h-0.857q-0.125 0-0.205 0.080t-0.080 0.205v1.429q0 0.125 0.080 0.205t0.205 0.080h4q0.125 0 0.205-0.080t0.080-0.205zM9.143 4.286v-1.429q0-0.125-0.080-0.205t-0.205-0.080h-1.714q-0.125 0-0.205 0.080t-0.080 0.205v1.429q0 0.125 0.080 0.205t0.205 0.080h1.714q0.125 0 0.205-0.080t0.080-0.205zM14.857 8q0 1.866-0.92 3.442t-2.496 2.496-3.442 0.92-3.442-0.92-2.496-2.496-0.92-3.442 0.92-3.442 2.496-2.496 3.442-0.92 3.442 0.92 2.496 2.496 0.92 3.442z"></path>
</symbol>
<symbol id="coh-icon-input" viewBox="0 0 16 16">
<title>input</title>
<path d="M14.857 3.429v9.143h-13.714v-9.143h13.714zM16 2.286h-16v11.429h16v-11.429z"></path>
<path d="M12.571 4.571h1.143v6.857h-1.143v-6.857z"></path>
<path d="M6.216 7.341c0.082 0.083 0.132 0.197 0.132 0.323 0 0.006-0 0.012-0 0.019l0 3.274c0 0.004 0 0.008 0 0.013 0 0.126-0.050 0.241-0.132 0.324s-0.194 0.135-0.32 0.135c-0.005 0-0.009-0-0.014-0s-0.009 0-0.015 0c-0.123 0-0.234-0.051-0.313-0.132-0.083-0.086-0.134-0.204-0.135-0.333-0.303 0.329-0.734 0.536-1.213 0.542-0.007 0-0.014 0-0.021 0-0.352 0-0.679-0.103-0.955-0.279-0.286-0.185-0.52-0.443-0.675-0.747q-0.255-0.499-0.255-1.118t0.246-1.113c0.156-0.317 0.388-0.576 0.671-0.762 0.271-0.177 0.595-0.28 0.942-0.28 0.005 0 0.010 0 0.015 0 0.003-0 0.008-0 0.012-0 0.247 0 0.482 0.050 0.696 0.14 0.2 0.082 0.382 0.198 0.539 0.342l-0.001-0.008c-0-0.004-0-0.008-0-0.013 0-0.126 0.050-0.241 0.132-0.324s0.194-0.135 0.32-0.135c0.005 0 0.009 0 0.014 0 0.003-0 0.008-0 0.013-0 0.124 0 0.237 0.050 0.319 0.132zM5.14 10.287q0.317-0.367 0.317-0.925t-0.317-0.929q-0.317-0.372-0.821-0.372c-0.007-0-0.016-0-0.025-0-0.317 0-0.6 0.144-0.787 0.37q-0.319 0.373-0.319 0.93t0.314 0.925 0.817 0.368 0.822-0.368z"></path>
<path d="M10.467 7.485c0.293 0.189 0.526 0.447 0.68 0.752q0.255 0.499 0.255 1.118t-0.246 1.11c-0.156 0.317-0.388 0.576-0.671 0.762-0.271 0.177-0.594 0.28-0.941 0.28-0.005 0-0.010-0-0.015-0-0.003 0-0.008 0-0.012 0-0.249 0-0.485-0.055-0.697-0.153-0.201-0.090-0.382-0.214-0.536-0.364l0 0.047c0 0.004 0 0.008 0 0.013 0 0.126-0.050 0.24-0.132 0.324s-0.194 0.135-0.32 0.135c-0.005 0-0.009-0-0.014-0-0.004 0-0.008 0-0.013 0-0.125 0-0.237-0.050-0.319-0.132-0.082-0.083-0.132-0.197-0.132-0.323 0-0.006 0-0.012 0-0.019l-0-4.862c-0-0.004-0-0.008-0-0.013 0-0.126 0.050-0.241 0.132-0.324 0.086-0.084 0.203-0.136 0.333-0.136s0.247 0.052 0.333 0.136c0.081 0.083 0.132 0.198 0.132 0.324 0 0.005-0 0.009-0 0.014l0 1.618c0.142-0.168 0.314-0.304 0.51-0.402 0.211-0.114 0.451-0.178 0.706-0.178 0 0 0 0 0.001 0 0.006-0 0.012-0 0.019-0 0.351 0 0.679 0.102 0.955 0.279zM10.196 10.284q0.318-0.372 0.318-0.929t-0.314-0.926q-0.314-0.367-0.817-0.368t-0.821 0.368-0.318 0.925 0.318 0.929 0.821 0.372c0.008 0 0.017 0 0.026 0 0.316 0 0.599-0.144 0.786-0.369z"></path>
</symbol>
<symbol id="coh-icon-laptop" viewBox="0 0 16 16">
<title>laptop</title>
<path d="M3.467 11.2q-0.55 0-0.942-0.392t-0.392-0.942v-5.867q0-0.55 0.392-0.942t0.942-0.392h9.067q0.55 0 0.942 0.392t0.392 0.942v5.867q0 0.55-0.392 0.942t-0.942 0.392h-9.067zM3.2 4v5.867q0 0.108 0.079 0.188t0.188 0.079h9.067q0.108 0 0.188-0.079t0.079-0.188v-5.867q0-0.108-0.079-0.188t-0.188-0.079h-9.067q-0.108 0-0.188 0.079t-0.079 0.188zM14.667 11.733h1.333v0.8q0 0.333-0.392 0.567t-0.942 0.233h-13.333q-0.55 0-0.942-0.233t-0.392-0.567v-0.8h14.667zM8.667 12.533q0.133 0 0.133-0.133t-0.133-0.133h-1.333q-0.133 0-0.133 0.133t0.133 0.133h1.333z"></path>
</symbol>
<symbol id="coh-icon-link" viewBox="0 0 16 16">
<title>link</title>
<path d="M14.118 11.765q0-0.392-0.275-0.667l-2.039-2.039q-0.275-0.275-0.667-0.275-0.412 0-0.706 0.314 0.029 0.029 0.186 0.181t0.211 0.211 0.147 0.186 0.127 0.25 0.034 0.27q0 0.392-0.275 0.667t-0.667 0.275q-0.147 0-0.27-0.034t-0.25-0.127-0.186-0.147-0.211-0.211-0.181-0.186q-0.324 0.304-0.324 0.716 0 0.392 0.275 0.667l2.020 2.029q0.265 0.265 0.667 0.265 0.392 0 0.667-0.255l1.441-1.431q0.275-0.275 0.275-0.657zM7.226 4.853q0-0.392-0.275-0.667l-2.020-2.029q-0.275-0.275-0.667-0.275-0.382 0-0.667 0.265l-1.441 1.431q-0.275 0.275-0.275 0.657 0 0.392 0.275 0.667l2.039 2.039q0.265 0.265 0.667 0.265 0.412 0 0.706-0.304-0.029-0.029-0.186-0.181t-0.211-0.211-0.147-0.186-0.127-0.25-0.034-0.27q0-0.392 0.275-0.667t0.667-0.275q0.147 0 0.27 0.034t0.25 0.127 0.186 0.147 0.211 0.211 0.181 0.186q0.324-0.304 0.324-0.716zM16 11.765q0 1.176-0.833 1.99l-1.441 1.431q-0.814 0.814-1.99 0.814-1.186 0-2-0.833l-2.020-2.029q-0.814-0.814-0.814-1.99 0-1.206 0.863-2.049l-0.863-0.863q-0.843 0.863-2.039 0.863-1.176 0-2-0.824l-2.039-2.039q-0.824-0.824-0.824-2t0.833-1.99l1.441-1.431q0.814-0.814 1.99-0.814 1.186 0 2 0.833l2.020 2.029q0.814 0.814 0.814 1.99 0 1.206-0.863 2.049l0.863 0.863q0.843-0.863 2.039-0.863 1.176 0 2 0.824l2.039 2.039q0.824 0.824 0.824 2z"></path>
</symbol>
<symbol id="coh-icon-link-fields" viewBox="0 0 16 16">
<title>link-fields</title>
<path d="M7.060 8.94c0.273 0.26 0.273 0.687 0 0.947-0.26 0.26-0.687 0.26-0.947 0-1.3-1.3-1.3-3.413 0-4.713v0l2.36-2.36c1.3-1.3 3.413-1.3 4.713 0s1.3 3.413 0 4.713l-0.993 0.993c0.007-0.547-0.080-1.093-0.267-1.613l0.313-0.32c0.787-0.78 0.787-2.047 0-2.827-0.78-0.787-2.047-0.787-2.827 0l-2.353 2.353c-0.787 0.78-0.787 2.047 0 2.827zM8.94 6.113c0.26-0.26 0.687-0.26 0.947 0 1.3 1.3 1.3 3.413 0 4.713v0l-2.36 2.36c-1.3 1.3-3.413 1.3-4.713 0s-1.3-3.413 0-4.713l0.993-0.993c-0.007 0.547 0.080 1.093 0.267 1.62l-0.313 0.313c-0.787 0.78-0.787 2.047 0 2.827 0.78 0.787 2.047 0.787 2.827 0l2.353-2.353c0.787-0.78 0.787-2.047 0-2.827-0.273-0.26-0.273-0.687 0-0.947z"></path>
</symbol>
<symbol id="coh-icon-link-panel" viewBox="0 0 16 16">
<title>link-panel</title>
<path d="M13.038 11.244c-0.17 0.453-0.425 1.189-0.425 1.643v2.149c0 0.003 0 0.006 0 0.010 0 0.527-0.427 0.955-0.955 0.955-0.003 0-0.007-0-0.010-0h-4.756c-0.003 0-0.006 0-0.010 0-0.527 0-0.955-0.427-0.955-0.955 0-0.003 0-0.007 0-0.010v-2.149c0-0.368-0.651-0.849-0.878-1.076-0.311-0.255-0.623-0.51-0.964-0.736-0.679-0.425-1.954-0.764-1.954-1.755 0-1.189 0.651-2.152 1.897-2.152 0.003-0 0.007-0 0.011-0 0.342 0 0.67 0.062 0.972 0.176l-0.019-2.782c0-1.019 0.878-1.897 1.897-1.897 1.048 0 1.897 0.849 1.897 1.897v1.246c0.311 0.028 0.623 0.113 0.878 0.283 0.081-0.018 0.174-0.029 0.269-0.029 0.015 0 0.030 0 0.044 0.001 0.501 0.003 0.963 0.173 1.334 0.457 1.41-0.032 2.231 0.93 2.231 2.318 0.030 0.85-0.224 1.643-0.508 2.407zM11.367 7.506c-0.143 0-0.283 0.028-0.425 0.028-0.17-0.311-0.595-0.481-0.934-0.481-0.188 0.004-0.363 0.057-0.515 0.146-0.209-0.246-0.521-0.399-0.869-0.399-0.001 0-0.003 0-0.004 0-0.226 0-0.594 0.113-0.764 0.255v-2.464c-0.005-0.531-0.434-0.959-0.964-0.964-0.51 0-0.965 0.453-0.965 0.964v4.275c-0.481 0-0.964-0.708-1.897-0.708-0.708 0-0.964 0.566-0.964 1.189 0 0.198 0.849 0.595 1.019 0.679s0.34 0.17 0.481 0.283c0.396 0.255 0.736 0.538 1.076 0.821 0.538 0.481 1.218 0.991 1.218 1.784v0.226h4.762v-0.226c0-1.303 0.964-2.576 0.964-4.020 0.026-0.821-0.313-1.387-1.219-1.387zM11.197 14.103c-0.266 0-0.481 0.216-0.481 0.481s0.216 0.481 0.481 0.481c0.266 0 0.481-0.216 0.481-0.481-0.028-0.283-0.226-0.481-0.481-0.481z"></path>
<path d="M0 0h1.143v9.143h-1.143v-9.143z"></path>
<path d="M0 0h16v1.143h-16v-1.143z"></path>
<path d="M14.857 0h1.143v9.143h-1.143v-9.143z"></path>
</symbol>
<symbol id="coh-icon-list-alt" viewBox="0 0 16 16">
<title>list-alt</title>
<path d="M0 1.143v13.714h16v-13.714h-16zM14.857 13.714h-13.714v-11.429h13.714v11.429z"></path>
<path d="M13.714 3.714v1.714c-0.002 0.157-0.129 0.284-0.286 0.286h-7.429c-0.157-0.002-0.284-0.129-0.286-0.285v-1.714c0.002-0.157 0.129-0.284 0.285-0.286h7.429c0.157 0.002 0.284 0.129 0.286 0.285v0z"></path>
<path d="M4.528 4.585c0 0.001 0 0.003 0 0.005 0 0.617-0.5 1.116-1.116 1.116-0.002 0-0.003 0-0.005-0h0c-0.001 0-0.003 0-0.005 0-0.617 0-1.116-0.5-1.116-1.116 0-0.002 0-0.003 0-0.005v0c0-0.001-0-0.003-0-0.005 0-0.617 0.5-1.116 1.116-1.116 0.002 0 0.003 0 0.005 0h-0c0.001 0 0.003-0 0.005-0 0.617 0 1.116 0.5 1.116 1.116 0 0.002 0 0.003-0 0.005v-0z"></path>
<path d="M13.714 7.143v1.714c-0.002 0.157-0.129 0.284-0.286 0.286h-7.429c-0.157-0.002-0.284-0.129-0.286-0.286v-1.714c0.002-0.157 0.129-0.284 0.285-0.286h7.429c0.157 0.002 0.284 0.129 0.286 0.285v0z"></path>
<path d="M4.528 8.014c0 0.001 0 0.003 0 0.005 0 0.617-0.5 1.116-1.116 1.116-0.002 0-0.003 0-0.005-0h0c-0.619-0.001-1.121-0.503-1.121-1.123 0-0.309 0.125-0.589 0.327-0.792l-0 0c0.197-0.202 0.471-0.327 0.775-0.327 0.007 0 0.013 0 0.020 0l-0.001-0c0.001 0 0.003-0 0.005-0 0.617 0 1.116 0.5 1.116 1.116 0 0.002 0 0.003-0 0.005v-0z"></path>
<path d="M13.732 10.571v1.714c-0.002 0.157-0.129 0.284-0.286 0.286h-7.429c-0.157-0.002-0.284-0.129-0.286-0.286v-1.714c0.002-0.157 0.129-0.284 0.285-0.286h7.429c0.157 0.002 0.284 0.129 0.286 0.286v0z"></path>
<path d="M4.546 11.443c0 0.001 0 0.003 0 0.005 0 0.617-0.5 1.116-1.116 1.116-0.002 0-0.003 0-0.005-0h0c-0.619 0-1.121-0.502-1.121-1.121s0.502-1.121 1.121-1.121v0c0.001 0 0.003-0 0.005-0 0.617 0 1.116 0.5 1.116 1.116 0 0.002 0 0.003-0 0.005v-0z"></path>
</symbol>
<symbol id="coh-icon-list-ul" viewBox="0 0 16 16">
<title>list-ul</title>
<path d="M3.429 12.571q0 0.714-0.5 1.214t-1.214 0.5-1.214-0.5-0.5-1.214 0.5-1.214 1.214-0.5 1.214 0.5 0.5 1.214zM3.429 8q0 0.714-0.5 1.214t-1.214 0.5-1.214-0.5-0.5-1.214 0.5-1.214 1.214-0.5 1.214 0.5 0.5 1.214zM16 11.714v1.714q0 0.116-0.085 0.201t-0.201 0.085h-10.857q-0.116 0-0.201-0.085t-0.085-0.201v-1.714q0-0.116 0.085-0.201t0.201-0.085h10.857q0.116 0 0.201 0.085t0.085 0.201zM3.429 3.429q0 0.714-0.5 1.214t-1.214 0.5-1.214-0.5-0.5-1.214 0.5-1.214 1.214-0.5 1.214 0.5 0.5 1.214zM16 7.143v1.714q0 0.116-0.085 0.201t-0.201 0.085h-10.857q-0.116 0-0.201-0.085t-0.085-0.201v-1.714q0-0.116 0.085-0.201t0.201-0.085h10.857q0.116 0 0.201 0.085t0.085 0.201zM16 2.571v1.714q0 0.116-0.085 0.201t-0.201 0.085h-10.857q-0.116 0-0.201-0.085t-0.085-0.201v-1.714q0-0.116 0.085-0.201t0.201-0.085h10.857q0.116 0 0.201 0.085t0.085 0.201z"></path>
</symbol>
<symbol id="coh-icon-map-marker" viewBox="0 0 9 16">
<title>map-marker</title>
<path d="M6.857 5.714q0-0.946-0.67-1.616t-1.616-0.67-1.616 0.67-0.67 1.616 0.67 1.616 1.616 0.67 1.616-0.67 0.67-1.616zM9.143 5.714q0 0.973-0.295 1.598l-3.25 6.911q-0.143 0.295-0.424 0.464t-0.603 0.17-0.603-0.17-0.415-0.464l-3.259-6.911q-0.295-0.625-0.295-1.598 0-1.893 1.339-3.232t3.232-1.339 3.232 1.339 1.339 3.232z"></path>
</symbol>
<symbol id="coh-icon-map-o" viewBox="0 0 18 16">
<title>map-o</title>
<path d="M18.036 0.098q0.25 0.179 0.25 0.473v12.571q0 0.179-0.098 0.321t-0.259 0.205l-5.714 2.286q-0.214 0.098-0.429 0l-5.5-2.196-5.5 2.196q-0.089 0.045-0.214 0.045-0.17 0-0.321-0.098-0.25-0.179-0.25-0.473v-12.571q0-0.179 0.098-0.321t0.259-0.205l5.714-2.286q0.214-0.098 0.429 0l5.5 2.196 5.5-2.196q0.286-0.116 0.536 0.054zM6.571 1.304v11.339l5.143 2.054v-11.339zM1.143 3.241v11.339l4.857-1.938v-11.339zM17.143 12.759v-11.339l-4.857 1.938v11.339z"></path>
</symbol>
<symbol id="coh-icon-media-entity" viewBox="0 0 17 16">
<title>media-entity</title>
<path d="M13.686 10.3v2.279h-2.314v1.139h2.314v2.282h1.139v-2.282h2.318v-1.139h-2.318v-2.279z"></path>
<path d="M2.286 11.429h8v-2.311h4.571v-1.689l-3.714-3.714-4.571 4.571-1.429-1.429-2.857 2.857z"></path>
<path d="M10.286 12.571h-8.857c-0.079 0-0.143-0.029-0.2-0.086s-0.086-0.125-0.086-0.2v-10.857c0-0.079 0.029-0.143 0.086-0.2s0.121-0.086 0.2-0.086h14.286c0.079 0 0.143 0.029 0.2 0.086s0.086 0.125 0.086 0.2v7.689h1.143v-7.689c0-0.393-0.139-0.729-0.421-1.007-0.279-0.282-0.614-0.421-1.007-0.421h-14.286c-0.393 0-0.729 0.139-1.007 0.421-0.282 0.279-0.421 0.614-0.421 1.007v10.857c0 0.393 0.139 0.729 0.421 1.007 0.279 0.282 0.614 0.421 1.007 0.421h8.857v-1.143z"></path>
<path d="M5.214 5.214c0.332-0.332 0.5-0.739 0.5-1.214s-0.168-0.882-0.5-1.214c-0.332-0.332-0.739-0.5-1.214-0.5s-0.882 0.168-1.214 0.5c-0.332 0.332-0.5 0.739-0.5 1.214s0.168 0.882 0.5 1.214c0.332 0.332 0.739 0.5 1.214 0.5s0.882-0.168 1.214-0.5z"></path>
</symbol>
<symbol id="coh-icon-media-entity-browser" viewBox="0 0 17 16">
<title>media-entity-browser</title>
<path d="M2.286 11.429h6.857v-3.418h5.714v-0.582l-3.714-3.714-4.571 4.571-1.429-1.429-2.857 2.857z"></path>
<path d="M9.143 12.571h-7.714c-0.079 0-0.143-0.029-0.2-0.086s-0.086-0.125-0.086-0.2v-10.857c0-0.079 0.029-0.143 0.086-0.2s0.121-0.086 0.2-0.086h14.286c0.079 0 0.143 0.029 0.2 0.086s0.086 0.125 0.086 0.2v6.582h1.143v-6.582c0-0.393-0.139-0.729-0.421-1.007-0.279-0.282-0.614-0.421-1.007-0.421h-14.286c-0.393 0-0.729 0.139-1.007 0.421-0.282 0.279-0.421 0.614-0.421 1.007v10.857c0 0.393 0.139 0.729 0.421 1.007 0.279 0.282 0.614 0.421 1.007 0.421h7.714v-1.143z"></path>
<path d="M5.214 5.214c0.332-0.332 0.5-0.739 0.5-1.214s-0.168-0.882-0.5-1.214c-0.332-0.332-0.739-0.5-1.214-0.5s-0.882 0.168-1.214 0.5c-0.332 0.332-0.5 0.739-0.5 1.214s0.168 0.882 0.5 1.214c0.332 0.332 0.739 0.5 1.214 0.5s0.882-0.168 1.214-0.5z"></path>
<path d="M15.243 13.261c0.261-0.411 0.411-0.907 0.411-1.429 0-1.489-1.193-2.682-2.682-2.682v0c-1.489 0-2.682 1.193-2.682 2.682s1.193 2.682 2.682 2.682c0.518 0 1.007-0.15 1.418-0.404l1.861 1.829 0.829-0.829-1.836-1.85zM12.975 13.318c-0.821 0-1.489-0.668-1.489-1.489s0.668-1.489 1.489-1.489c0.821 0 1.489 0.668 1.489 1.489 0 0.825-0.668 1.489-1.489 1.489z"></path>
</symbol>
<symbol id="coh-icon-menu" viewBox="0 0 16 16">
<title>menu</title>
<path d="M14.857 2.571v1.714c-0.002 0.157-0.129 0.284-0.286 0.286h-13.143c-0.157-0.002-0.284-0.129-0.286-0.285v-1.714c0.002-0.157 0.129-0.284 0.285-0.286h13.143c0.157 0.002 0.284 0.129 0.286 0.285v0z"></path>
<path d="M14.857 7.125v1.714c-0.002 0.157-0.129 0.284-0.286 0.286h-13.143c-0.157-0.002-0.284-0.129-0.286-0.286v-1.714c0.002-0.157 0.129-0.284 0.285-0.286h13.143c0.157 0.002 0.284 0.129 0.286 0.285v0z"></path>
<path d="M14.857 11.714v1.714c-0.002 0.157-0.129 0.284-0.286 0.286h-13.143c-0.157-0.002-0.284-0.129-0.286-0.286v-1.714c0.002-0.157 0.129-0.284 0.285-0.286h13.143c0.157 0.002 0.284 0.129 0.286 0.286v0z"></path>
</symbol>
<symbol id="coh-icon-menu-link" viewBox="0 0 16 16">
<title>menu-link</title>
<path d="M1.143 0h13.714v2.286h-13.714v-2.286z"></path>
<path d="M1.143 10.286h13.714v2.286h-13.714v-2.286z"></path>
<path d="M0 3.429h16v1.143h-16v-1.143z"></path>
<path d="M0 8h16v1.143h-16v-1.143z"></path>
<path d="M0 4.571h1.143v3.429h-1.143v-3.429z"></path>
<path d="M14.857 4.571h1.143v3.429h-1.143v-3.429z"></path>
<path d="M1.143 13.714h13.714v2.286h-13.714v-2.286z"></path>
</symbol>
<symbol id="coh-icon-menu-list-container" viewBox="0 0 16 16">
<title>menu-list-container</title>
<path d="M8 2.286v-2.261h-8v14.832h16v-12.571h-8zM14.857 13.714h-13.714v-10.286h13.714v10.286z"></path>
<path d="M2.286 5.714h11.429v1.143h-11.429v-1.143z"></path>
<path d="M2.286 8h11.429v1.143h-11.429v-1.143z"></path>
<path d="M2.286 10.286h11.429v1.143h-11.429v-1.143z"></path>
</symbol>
<symbol id="coh-icon-menu-list-item" viewBox="0 0 16 16">
<title>menu-list-item</title>
<path d="M8 2.286v-2.261h-8v14.832h16v-12.571h-8zM14.857 13.714h-13.714v-10.286h13.714v10.286z"></path>
<path d="M2.286 6.857h11.429v3.429h-11.429v-3.429z"></path>
</symbol>
<symbol id="coh-icon-minus-square" viewBox="0 0 16 16">
<title>minus-square</title>
<path d="M12.571 8.571v-1.143q0-0.232-0.17-0.402t-0.402-0.17h-8q-0.232 0-0.402 0.17t-0.17 0.402v1.143q0 0.232 0.17 0.402t0.402 0.17h8q0.232 0 0.402-0.17t0.17-0.402zM14.857 3.714v8.571q0 1.062-0.754 1.817t-1.817 0.754h-8.571q-1.062 0-1.817-0.754t-0.754-1.817v-8.571q0-1.062 0.754-1.817t1.817-0.754h8.571q1.062 0 1.817 0.754t0.754 1.817z"></path>
</symbol>
<symbol id="coh-icon-mobile" viewBox="0 0 16 16">
<title>mobile</title>
<path d="M8.715 12.573q0-0.295-0.21-0.505t-0.505-0.21-0.505 0.21-0.21 0.505 0.21 0.505 0.505 0.21 0.505-0.21 0.21-0.505zM10.572 11.144v-6.288q0-0.116-0.085-0.201t-0.201-0.085h-4.573q-0.116 0-0.201 0.085t-0.085 0.201v6.288q0 0.116 0.085 0.201t0.201 0.085h4.573q0.116 0 0.201-0.085t0.085-0.201zM8.857 3.57q0-0.143-0.143-0.143h-1.429q-0.143 0-0.143 0.143t0.143 0.143h1.429q0.143 0 0.143-0.143zM11.43 3.427v9.146q0 0.464-0.339 0.804t-0.804 0.339h-4.573q-0.464 0-0.804-0.339t-0.339-0.804v-9.146q0-0.464 0.339-0.804t0.804-0.339h4.573q0.464 0 0.804 0.339t0.339 0.804z"></path>
</symbol>
<symbol id="coh-icon-mobile-landscape" viewBox="0 0 16 16">
<title>mobile-landscape</title>
<path d="M3.427 8.715q0.295 0 0.505-0.21t0.21-0.505-0.21-0.505-0.505-0.21-0.505 0.21-0.21 0.505 0.21 0.505 0.505 0.21zM4.856 10.572h6.288q0.116 0 0.201-0.085t0.085-0.201v-4.573q0-0.116-0.085-0.201t-0.201-0.085h-6.288q-0.116 0-0.201 0.085t-0.085 0.201v4.573q0 0.116 0.085 0.201t0.201 0.085zM12.43 8.857q0.143 0 0.143-0.143v-1.429q0-0.143-0.143-0.143t-0.143 0.143v1.429q0 0.143 0.143 0.143zM12.573 11.43h-9.146q-0.464 0-0.804-0.339t-0.339-0.804v-4.573q0-0.464 0.339-0.804t0.804-0.339h9.146q0.464 0 0.804 0.339t0.339 0.804v4.573q0 0.464-0.339 0.804t-0.804 0.339z"></path>
</symbol>
<symbol id="coh-icon-modal" viewBox="0 0 16 16">
<title>modal</title>
<path d="M15 0h-14c-0.55 0-1 0.45-1 1v14c0 0.55 0.45 1 1 1h14c0.55 0 1-0.45 1-1v-14c0-0.55-0.45-1-1-1zM13.325 6.9c0.1 0.1 0.125 0.2 0.125 0.325s-0.050 0.25-0.125 0.325l-0.675 0.675c-0.1 0.1-0.2 0.125-0.325 0.125s-0.25-0.050-0.325-0.125l-1.425-1.425-1.425 1.425c-0.1 0.1-0.2 0.125-0.325 0.125s-0.25-0.050-0.325-0.125l-0.675-0.675c-0.1-0.1-0.125-0.2-0.125-0.325s0.050-0.25 0.125-0.325l1.425-1.425-1.425-1.425c-0.1-0.1-0.125-0.2-0.125-0.325s0.050-0.25 0.125-0.325l0.675-0.675c0.1-0.1 0.2-0.125 0.325-0.125s0.25 0.050 0.325 0.125l1.425 1.425 1.425-1.425c0.1-0.1 0.2-0.125 0.325-0.125s0.25 0.050 0.325 0.125l0.675 0.675c0.1 0.1 0.125 0.2 0.125 0.325s-0.050 0.25-0.125 0.325l-1.425 1.425 1.425 1.425z"></path>
</symbol>
<symbol id="coh-icon-move" viewBox="0 0 16 16">
<title>move</title>
<path d="M16 8q0 0.232-0.17 0.402l-2.286 2.286q-0.17 0.17-0.402 0.17t-0.402-0.17-0.17-0.402v-1.143h-3.429v3.429h1.143q0.232 0 0.402 0.17t0.17 0.402-0.17 0.402l-2.286 2.286q-0.17 0.17-0.402 0.17t-0.402-0.17l-2.286-2.286q-0.17-0.17-0.17-0.402t0.17-0.402 0.402-0.17h1.143v-3.429h-3.429v1.143q0 0.232-0.17 0.402t-0.402 0.17-0.402-0.17l-2.286-2.286q-0.17-0.17-0.17-0.402t0.17-0.402l2.286-2.286q0.17-0.17 0.402-0.17t0.402 0.17 0.17 0.402v1.143h3.429v-3.429h-1.143q-0.232 0-0.402-0.17t-0.17-0.402 0.17-0.402l2.286-2.286q0.17-0.17 0.402-0.17t0.402 0.17l2.286 2.286q0.17 0.17 0.17 0.402t-0.17 0.402-0.402 0.17h-1.143v3.429h3.429v-1.143q0-0.232 0.17-0.402t0.402-0.17 0.402 0.17l2.286 2.286q0.17 0.17 0.17 0.402z"></path>
</symbol>
<symbol id="coh-icon-open-token-browser" viewBox="0 0 16 16">
<title>open-token-browser</title>
<path d="M0 1.161v13.696h4.571v-1.714h-2.857v-10.281h2.857v-1.714h-4.571v0.013z"></path>
<path d="M11.429 1.143v1.714h2.857v10.286h-2.857v1.714h4.571v-13.714h-4.571z"></path>
<path d="M11.758 10.521l-0.95-0.95c0.389-0.607 0.62-1.347 0.62-2.141 0-2.213-1.794-4.007-4.007-4.007s-4.007 1.794-4.007 4.007c0 2.213 1.794 4.007 4.007 4.007 0.812 0 1.567-0.241 2.198-0.656l-0.015 0.009 0.942 0.942c0.155 0.155 0.37 0.25 0.606 0.25s0.451-0.095 0.606-0.25l-0 0c0.154-0.155 0.25-0.369 0.25-0.606s-0.095-0.451-0.25-0.606l0 0zM7.425 9.652c-1.225-0-2.217-0.993-2.217-2.217s0.993-2.217 2.217-2.217 2.217 0.993 2.217 2.217v0c-0.001 1.224-0.994 2.216-2.218 2.217h-0z"></path>
</symbol>
<symbol id="coh-icon-pagination" viewBox="0 0 16 16">
<title>pagination</title>
<path d="M13.714 4.571h2.286v6.857h-2.286v-6.857z"></path>
<path d="M0 4.571h2.286v6.857h-2.286v-6.857z"></path>
<path d="M6.857 4.571l-4.571 3.429 4.571 3.429v-6.857z"></path>
<path d="M9.143 4.571v6.857l4.571-3.429-4.571-3.429z"></path>
</symbol>
<symbol id="coh-icon-paint-brush" viewBox="0 0 16 16">
<title>paint-brush</title>
<path d="M14.42 0q0.625 0 1.094 0.415t0.469 1.040q0 0.563-0.402 1.348-2.964 5.616-4.152 6.714-0.866 0.813-1.946 0.813-1.125 0-1.933-0.826t-0.808-1.96q0-1.143 0.821-1.893l5.696-5.17q0.527-0.482 1.161-0.482zM6.304 9.232q0.348 0.679 0.951 1.161t1.344 0.679l0.009 0.634q0.036 1.902-1.156 3.098t-3.112 1.196q-1.098 0-1.946-0.415t-1.362-1.138-0.772-1.634-0.259-1.964q0.063 0.045 0.366 0.268t0.554 0.397 0.527 0.326 0.411 0.152q0.366 0 0.491-0.33 0.223-0.589 0.513-1.004t0.621-0.679 0.786-0.424 0.92-0.228 1.116-0.094z"></path>
</symbol>
<symbol id="coh-icon-paragraph" viewBox="0 0 16 16">
<title>paragraph</title>
<path d="M0 1.156h10.286v2.272h-10.286v-2.272z"></path>
<path d="M0 4.571h14.857v2.286h-14.857v-2.286z"></path>
<path d="M0 8h11.429v2.286h-11.429v-2.286z"></path>
<path d="M0 11.429h16v2.286h-16v-2.286z"></path>
</symbol>
<symbol id="coh-icon-pattern-repeater" viewBox="0 0 16 16">
<title>pattern-repeater</title>
<path d="M4.571 12.286v1.718c0 0.471-0.382 0.854-0.854 0.854h-2.876c-0 0-0.001 0-0.001 0-0.232 0-0.441-0.096-0.591-0.25-0.154-0.15-0.25-0.36-0.25-0.591 0-0 0-0.001 0-0.001 0-0.005 0-0.010 0-0.016v-1.713c0-0.004 0-0.010 0-0.015 0-0 0-0.001 0-0.001 0-0.232 0.096-0.441 0.25-0.591 0.15-0.154 0.36-0.25 0.592-0.25 0 0 0.001 0 0.001 0h2.875c0.471 0 0.854 0.382 0.854 0.854v0.004z"></path>
<path d="M4.571 7.714v1.718c0 0.471-0.382 0.854-0.854 0.854h-2.876c-0 0-0.001 0-0.001 0-0.232 0-0.441-0.096-0.591-0.25-0.154-0.15-0.25-0.36-0.25-0.591 0-0 0-0.001 0-0.001 0-0.005 0-0.010 0-0.016v-1.713c0-0.004 0-0.010 0-0.015 0-0 0-0.001 0-0.001 0-0.232 0.096-0.441 0.25-0.591 0.15-0.154 0.36-0.25 0.592-0.25 0 0 0.001 0 0.001 0h2.875c0.471 0 0.854 0.382 0.854 0.854v0.004z"></path>
<path d="M10.286 12.286v1.718c0 0.471-0.382 0.854-0.854 0.854h-2.864c-0.471 0-0.854-0.382-0.854-0.854v-1.721c0-0.471 0.382-0.854 0.854-0.854h2.864c0.471 0 0.854 0.382 0.854 0.854v0.004z"></path>
<path d="M4.571 3.143v1.718c0 0.471-0.382 0.854-0.854 0.854h-2.876c-0 0-0.001 0-0.001 0-0.232 0-0.441-0.096-0.591-0.25-0.154-0.15-0.25-0.36-0.25-0.591 0-0 0-0.001 0-0.001 0-0.005 0-0.010 0-0.016v-1.713c0-0.004 0-0.010 0-0.015 0-0 0-0.001 0-0.001 0-0.232 0.096-0.441 0.25-0.591 0.15-0.154 0.36-0.25 0.592-0.25 0 0 0.001 0 0.001 0h2.875c0.471 0 0.854 0.382 0.854 0.854v0.004z"></path>
<path d="M10.286 7.714v1.718c0 0.471-0.382 0.854-0.854 0.854h-2.864c-0.471 0-0.854-0.382-0.854-0.854v-1.721c0-0.471 0.382-0.854 0.854-0.854h2.864c0.471 0 0.854 0.382 0.854 0.854v0.004z"></path>
<path d="M10.286 3.143v1.718c0 0.471-0.382 0.854-0.854 0.854h-2.864c-0.471 0-0.854-0.382-0.854-0.854v-1.721c0-0.471 0.382-0.854 0.854-0.854h2.864c0.471 0 0.854 0.382 0.854 0.854v0.004z"></path>
<path d="M16 7.714v1.718c0 0.471-0.382 0.854-0.854 0.854h-2.864c-0.471 0-0.854-0.382-0.854-0.854v-1.721c0-0.471 0.382-0.854 0.854-0.854h2.864c0.471 0 0.854 0.382 0.854 0.854v0.004z"></path>
<path d="M16 3.143v1.718c0 0.471-0.382 0.854-0.854 0.854h-2.864c-0.471 0-0.854-0.382-0.854-0.854v-1.721c0-0.471 0.382-0.854 0.854-0.854h2.864c0.471 0 0.854 0.382 0.854 0.854v0.004z"></path>
</symbol>
<symbol id="coh-icon-plus" viewBox="0 0 16 16">
<title>plus</title>
<path d="M13.714 9.143h-4.571v4.571h-2.286v-4.571h-4.571v-2.286h4.571v-4.571h2.286v4.571h4.571v2.286z"></path>
</symbol>
<symbol id="coh-icon-plus-circle" viewBox="0 0 16 16">
<title>plus-circle</title>
<path d="M12 8.571v-1.143q0-0.232-0.17-0.402t-0.402-0.17h-2.286v-2.286q0-0.232-0.17-0.402t-0.402-0.17h-1.143q-0.232 0-0.402 0.17t-0.17 0.402v2.286h-2.286q-0.232 0-0.402 0.17t-0.17 0.402v1.143q0 0.232 0.17 0.402t0.402 0.17h2.286v2.286q0 0.232 0.17 0.402t0.402 0.17h1.143q0.232 0 0.402-0.17t0.17-0.402v-2.286h2.286q0.232 0 0.402-0.17t0.17-0.402zM14.857 8q0 1.866-0.92 3.442t-2.496 2.496-3.442 0.92-3.442-0.92-2.496-2.496-0.92-3.442 0.92-3.442 2.496-2.496 3.442-0.92 3.442 0.92 2.496 2.496 0.92 3.442z"></path>
</symbol>
<symbol id="coh-icon-plus-square" viewBox="0 0 16 16">
<title>plus-square</title>
<path d="M12.571 8.571v-1.143q0-0.232-0.17-0.402t-0.402-0.17h-2.857v-2.857q0-0.232-0.17-0.402t-0.402-0.17h-1.143q-0.232 0-0.402 0.17t-0.17 0.402v2.857h-2.857q-0.232 0-0.402 0.17t-0.17 0.402v1.143q0 0.232 0.17 0.402t0.402 0.17h2.857v2.857q0 0.232 0.17 0.402t0.402 0.17h1.143q0.232 0 0.402-0.17t0.17-0.402v-2.857h2.857q0.232 0 0.402-0.17t0.17-0.402zM14.857 3.714v8.571q0 1.062-0.754 1.817t-1.817 0.754h-8.571q-1.062 0-1.817-0.754t-0.754-1.817v-8.571q0-1.062 0.754-1.817t1.817-0.754h8.571q1.062 0 1.817 0.754t0.754 1.817z"></path>
</symbol>
<symbol id="coh-icon-question-circle" viewBox="0 0 16 16">
<title>question-circle</title>
<path d="M9.143 12.286v-1.714q0-0.125-0.080-0.205t-0.205-0.080h-1.714q-0.125 0-0.205 0.080t-0.080 0.205v1.714q0 0.125 0.080 0.205t0.205 0.080h1.714q0.125 0 0.205-0.080t0.080-0.205zM11.429 6.286q0-0.786-0.496-1.455t-1.237-1.036-1.518-0.366q-2.17 0-3.312 1.902-0.134 0.214 0.071 0.375l1.179 0.893q0.063 0.054 0.17 0.054 0.143 0 0.223-0.107 0.473-0.607 0.768-0.821 0.304-0.214 0.768-0.214 0.429 0 0.763 0.232t0.335 0.527q0 0.339-0.179 0.545t-0.607 0.402q-0.563 0.25-1.031 0.772t-0.469 1.121v0.321q0 0.125 0.080 0.205t0.205 0.080h1.714q0.125 0 0.205-0.080t0.080-0.205q0-0.17 0.192-0.442t0.487-0.442q0.286-0.161 0.438-0.254t0.411-0.312 0.397-0.429 0.25-0.54 0.112-0.723zM14.857 8q0 1.866-0.92 3.442t-2.496 2.496-3.442 0.92-3.442-0.92-2.496-2.496-0.92-3.442 0.92-3.442 2.496-2.496 3.442-0.92 3.442 0.92 2.496 2.496 0.92 3.442z"></path>
</symbol>
<symbol id="coh-icon-quote-left" viewBox="0 0 15 16">
<title>quote-left</title>
<path d="M6.857 8.571v3.429q0 0.714-0.5 1.214t-1.214 0.5h-3.429q-0.714 0-1.214-0.5t-0.5-1.214v-6.286q0-0.929 0.362-1.772t0.978-1.46 1.46-0.978 1.772-0.362h0.571q0.232 0 0.402 0.17t0.17 0.402v1.143q0 0.232-0.17 0.402t-0.402 0.17h-0.571q-0.946 0-1.616 0.67t-0.67 1.616v0.286q0 0.357 0.25 0.607t0.607 0.25h2q0.714 0 1.214 0.5t0.5 1.214zM14.857 8.571v3.429q0 0.714-0.5 1.214t-1.214 0.5h-3.429q-0.714 0-1.214-0.5t-0.5-1.214v-6.286q0-0.929 0.362-1.772t0.978-1.46 1.46-0.978 1.772-0.362h0.571q0.232 0 0.402 0.17t0.17 0.402v1.143q0 0.232-0.17 0.402t-0.402 0.17h-0.571q-0.946 0-1.616 0.67t-0.67 1.616v0.286q0 0.357 0.25 0.607t0.607 0.25h2q0.714 0 1.214 0.5t0.5 1.214z"></path>
</symbol>
<symbol id="coh-icon-range-slider" viewBox="0 0 16 16">
<title>range-slider</title>
<path d="M6.875 10.293h2.718v0.629c-0.236 0.214-0.432 0.443-0.593 0.693-0.193 0.3-0.343 0.639-0.454 1.007-0.089 0.289-0.146 0.629-0.179 1.021h-0.929c0.071-0.546 0.189-1.007 0.346-1.375 0.157-0.371 0.404-0.768 0.746-1.189h-1.654v-0.786z"></path>
<path d="M10.357 10.293h2.211v0.743h-1.496l-0.079 0.504c0.104-0.050 0.207-0.086 0.307-0.111s0.2-0.036 0.3-0.036c0.336 0 0.607 0.1 0.814 0.304s0.314 0.457 0.314 0.764c0 0.218-0.054 0.425-0.161 0.625s-0.261 0.354-0.457 0.457c-0.196 0.104-0.45 0.157-0.757 0.157-0.221 0-0.411-0.021-0.568-0.064s-0.293-0.104-0.404-0.186c-0.111-0.082-0.2-0.179-0.268-0.282s-0.125-0.236-0.171-0.393l0.943-0.104c0.021 0.15 0.075 0.264 0.161 0.343 0.082 0.079 0.182 0.118 0.3 0.118 0.129 0 0.236-0.050 0.321-0.146 0.086-0.1 0.129-0.246 0.129-0.439 0-0.2-0.043-0.346-0.129-0.439s-0.2-0.139-0.339-0.139c-0.089 0-0.175 0.021-0.261 0.068-0.061 0.032-0.132 0.089-0.207 0.175l-0.793-0.114 0.289-1.804z"></path>
<path d="M3.411 4.571h9.143v2.286h-9.143v-2.286z"></path>
<path d="M9.107 2.296h1.214v6.857h-1.214v-6.857z"></path>
<path d="M0.004 4.571h2.286v2.279h-2.286v-2.279z"></path>
<path d="M13.718 4.571h2.286v2.279h-2.286v-2.279z"></path>
</symbol>
<symbol id="coh-icon-read-more" viewBox="0 0 16 16">
<title>read-more</title>
<path d="M8 14.832c-3.768 0-6.832-3.064-6.832-6.832s3.064-6.832 6.832-6.832 6.832 3.064 6.832 6.832-3.064 6.832-6.832 6.832zM8 2.389c-3.107 0-5.611 2.504-5.611 5.611s2.525 5.611 5.611 5.611c3.107 0 5.611-2.529 5.611-5.611 0-3.107-2.504-5.611-5.611-5.611z"></path>
<path d="M6.093 8c0 0.614-0.5 1.114-1.114 1.114s-1.114-0.5-1.114-1.114 0.5-1.114 1.114-1.114 1.114 0.5 1.114 1.114zM9.114 8c0 0.614-0.5 1.114-1.114 1.114s-1.114-0.5-1.114-1.114 0.5-1.114 1.114-1.114 1.114 0.5 1.114 1.114zM12.132 8c0 0.614-0.5 1.114-1.114 1.114s-1.114-0.5-1.114-1.114 0.5-1.114 1.114-1.114 1.114 0.5 1.114 1.114z"></path>
</symbol>
<symbol id="coh-icon-refresh" viewBox="0 0 16 16">
<title>refresh</title>
<path d="M14.634 9.429q0 0.045-0.009 0.063-0.571 2.393-2.393 3.879t-4.268 1.487q-1.304 0-2.522-0.491t-2.174-1.402l-1.152 1.152q-0.17 0.17-0.402 0.17t-0.402-0.17-0.17-0.402v-4q0-0.232 0.17-0.402t0.402-0.17h4q0.232 0 0.402 0.17t0.17 0.402-0.17 0.402l-1.223 1.223q0.634 0.589 1.437 0.911t1.67 0.321q1.196 0 2.232-0.58t1.661-1.598q0.098-0.152 0.473-1.045 0.071-0.205 0.268-0.205h1.714q0.116 0 0.201 0.085t0.085 0.201zM14.857 2.286v4q0 0.232-0.17 0.402t-0.402 0.17h-4q-0.232 0-0.402-0.17t-0.17-0.402 0.17-0.402l1.232-1.232q-1.321-1.223-3.116-1.223-1.196 0-2.232 0.58t-1.661 1.598q-0.098 0.152-0.473 1.045-0.071 0.205-0.268 0.205h-1.777q-0.116 0-0.201-0.085t-0.085-0.201v-0.063q0.58-2.393 2.411-3.879t4.286-1.487q1.304 0 2.536 0.496t2.187 1.397l1.161-1.152q0.17-0.17 0.402-0.17t0.402 0.17 0.17 0.402z"></path>
</symbol>
<symbol id="coh-icon-responsive" viewBox="0 0 16 16">
<title>responsive</title>
<path d="M16 8c0 0.152-0.063 0.295-0.17 0.402l-2.286 2.286c-0.107 0.107-0.25 0.17-0.402 0.17-0.313 0-0.571-0.259-0.571-0.571v-1.143h-9.143v1.143c0 0.313-0.259 0.571-0.571 0.571-0.152 0-0.295-0.063-0.402-0.17l-2.286-2.286c-0.107-0.107-0.17-0.25-0.17-0.402s0.063-0.295 0.17-0.402l2.286-2.286c0.107-0.107 0.25-0.17 0.402-0.17 0.313 0 0.571 0.259 0.571 0.571v1.143h9.143v-1.143c0-0.313 0.259-0.571 0.571-0.571 0.152 0 0.295 0.063 0.402 0.17l2.286 2.286c0.107 0.107 0.17 0.25 0.17 0.402z"></path>
</symbol>
<symbol id="coh-icon-revert" viewBox="0 0 16 16">
<title>revert</title>
<path d="M8 1.429v-1.429l-3.429 2.286 3.429 2.286v-1.429c2.682 0 4.857 2.175 4.857 4.857s-2.175 4.857-4.857 4.857-4.857-2.175-4.857-4.857h-1.714c0 3.629 2.943 6.571 6.571 6.571s6.571-2.943 6.571-6.571-2.943-6.571-6.571-6.571z"></path>
</symbol>
<symbol id="coh-icon-rocket" viewBox="0 0 15 16">
<title>rocket</title>
<path d="M12.857 4q0-0.357-0.25-0.607t-0.607-0.25-0.607 0.25-0.25 0.607 0.25 0.607 0.607 0.25 0.607-0.25 0.25-0.607zM14.857 1.429q0 2.223-0.674 3.844t-2.263 3.219q-0.723 0.714-1.741 1.571l-0.179 3.384q-0.018 0.143-0.143 0.232l-3.429 2q-0.063 0.036-0.143 0.036-0.107 0-0.205-0.080l-0.571-0.571q-0.116-0.125-0.071-0.286l0.759-2.464-2.509-2.509-2.464 0.759q-0.027 0.009-0.080 0.009-0.125 0-0.205-0.080l-0.571-0.571q-0.152-0.17-0.045-0.348l2-3.429q0.089-0.125 0.232-0.143l3.384-0.179q0.857-1.018 1.571-1.741 1.679-1.67 3.196-2.304t3.848-0.634q0.125 0 0.214 0.085t0.089 0.201z"></path>
</symbol>
<symbol id="coh-icon-row-for-columns" viewBox="0 0 16 16">
<title>row-for-columns</title>
<path d="M14.857 2.286v11.429h-13.714v-11.429h13.714zM16 1.143h-16v13.714h16v-13.714z"></path>
<path d="M6.857 2.286h2.286v11.429h-2.286v-11.429z"></path>
</symbol>
<symbol id="coh-icon-safari" viewBox="0 0 16 16">
<title>safari</title>
<path d="M8.473 7.973q0 0.232-0.147 0.402t-0.371 0.17q-0.232 0-0.402-0.147t-0.17-0.371q0-0.232 0.152-0.402t0.375-0.17 0.393 0.147 0.17 0.371zM8.607 8.491l3.125-5.188q-0.080 0.071-0.603 0.558t-1.121 1.040-1.219 1.134-1.045 0.987-0.451 0.46l-3.116 5.179q0.063-0.063 0.598-0.554t1.125-1.040 1.214-1.134 1.045-0.991 0.446-0.451zM14.384 8q0 1.795-0.929 3.313-0.027-0.018-0.152-0.098t-0.237-0.147-0.147-0.067q-0.116 0-0.116 0.116 0 0.089 0.527 0.393-0.661 1-1.647 1.701t-2.156 0.987l-0.143-0.598q-0.009-0.089-0.134-0.089-0.045 0-0.071 0.049t-0.018 0.085l0.143 0.607q-0.643 0.134-1.304 0.134-1.777 0-3.321-0.938 0.009-0.018 0.116-0.183t0.192-0.299 0.085-0.17q0-0.116-0.116-0.116-0.054 0-0.152 0.129t-0.201 0.308-0.121 0.205q-1.009-0.67-1.714-1.674t-0.982-2.183l0.616-0.134q0.089-0.027 0.089-0.134 0-0.045-0.049-0.071t-0.094-0.018l-0.607 0.134q-0.125-0.643-0.125-1.241 0-1.839 0.973-3.384 0.018 0.009 0.165 0.107t0.268 0.17 0.156 0.071q0.116 0 0.116-0.107 0-0.054-0.112-0.138t-0.29-0.192l-0.179-0.107q0.688-1 1.688-1.688t2.179-0.955l0.134 0.598q0.018 0.089 0.134 0.089 0.045 0 0.071-0.049t0.018-0.094l-0.134-0.589q0.634-0.116 1.196-0.116 1.821 0 3.384 0.973-0.348 0.5-0.348 0.58 0 0.116 0.107 0.116 0.098 0 0.429-0.571 0.991 0.67 1.674 1.661t0.96 2.152l-0.5 0.107q-0.089 0.018-0.089 0.143 0 0.045 0.049 0.071t0.085 0.018l0.509-0.116q0.125 0.643 0.125 1.25zM15.143 8q0-1.455-0.567-2.777t-1.522-2.277-2.277-1.522-2.777-0.567-2.777 0.567-2.277 1.522-1.522 2.277-0.567 2.777 0.567 2.777 1.522 2.277 2.277 1.522 2.777 0.567 2.777-0.567 2.277-1.522 1.522-2.277 0.567-2.777zM16 8q0 1.625-0.634 3.107t-1.705 2.554-2.554 1.705-3.107 0.634-3.107-0.634-2.554-1.705-1.705-2.554-0.634-3.107 0.634-3.107 1.705-2.554 2.554-1.705 3.107-0.634 3.107 0.634 2.554 1.705 1.705 2.554 0.634 3.107z"></path>
</symbol>
<symbol id="coh-icon-save" viewBox="0 0 14 16">
<title>save</title>
<path d="M3.429 13.714h6.857v-3.429h-6.857v3.429zM11.429 13.714h1.143v-8q0-0.125-0.089-0.344t-0.179-0.308l-2.509-2.509q-0.089-0.089-0.304-0.179t-0.348-0.089v3.714q0 0.357-0.25 0.607t-0.607 0.25h-5.143q-0.357 0-0.607-0.25t-0.25-0.607v-3.714h-1.143v11.429h1.143v-3.714q0-0.357 0.25-0.607t0.607-0.25h7.429q0.357 0 0.607 0.25t0.25 0.607v3.714zM8 5.429v-2.857q0-0.116-0.085-0.201t-0.201-0.085h-1.714q-0.116 0-0.201 0.085t-0.085 0.201v2.857q0 0.116 0.085 0.201t0.201 0.085h1.714q0.116 0 0.201-0.085t0.085-0.201zM13.714 5.714v8.286q0 0.357-0.25 0.607t-0.607 0.25h-12q-0.357 0-0.607-0.25t-0.25-0.607v-12q0-0.357 0.25-0.607t0.607-0.25h8.286q0.357 0 0.786 0.179t0.679 0.429l2.5 2.5q0.25 0.25 0.429 0.679t0.179 0.786z"></path>
</symbol>
<symbol id="coh-icon-search" viewBox="0 0 15 16">
<title>search</title>
<path d="M10.286 7.429c0-2.205-1.795-4-4-4s-4 1.795-4 4 1.795 4 4 4 4-1.795 4-4zM14.857 14.857c0 0.625-0.518 1.143-1.143 1.143-0.304 0-0.598-0.125-0.804-0.339l-3.063-3.054c-1.045 0.723-2.295 1.107-3.563 1.107-3.473 0-6.286-2.813-6.286-6.286s2.813-6.286 6.286-6.286 6.286 2.813 6.286 6.286c0 1.268-0.384 2.518-1.107 3.563l3.063 3.063c0.205 0.205 0.33 0.5 0.33 0.804z"></path>
</symbol>
<symbol id="coh-icon-select" viewBox="0 0 16 16">
<title>select</title>
<path d="M0 2.26h1.143v11.454h-1.143v-11.454z"></path>
<path d="M0 2.286h16v1.143h-16v-1.143z"></path>
<path d="M14.857 3.429h1.143v10.286h-1.143v-10.286z"></path>
<path d="M0 12.571h14.857v1.143h-14.857v-1.143z"></path>
<path d="M1.143 5.714h13.714v1.143h-13.714v-1.143z"></path>
<path d="M11.429 3.429h3.429v2.286h-3.429v-2.286z"></path>
<path d="M2.286 8h11.429v1.143h-11.429v-1.143z"></path>
<path d="M2.286 10.286h11.429v1.143h-11.429v-1.143z"></path>
</symbol>
<symbol id="coh-icon-slide-container" viewBox="0 0 16 16">
<title>slide-container</title>
<path d="M14.857 2.286v8h-13.714v-8h13.714zM16 1.143h-16v10.286h16v-10.286z"></path>
<path d="M12.571 12.571h1.143v1.143h-1.143v-1.143z"></path>
<path d="M2.286 12.571h1.143v1.143h-1.143v-1.143z"></path>
<path d="M4.571 12.571h1.143v1.143h-1.143v-1.143z"></path>
<path d="M10.286 12.571h1.143v1.143h-1.143v-1.143z"></path>
<path d="M6.857 12.571h2.286v1.143h-2.286v-1.143z"></path>
</symbol>
<symbol id="coh-icon-slide-item" viewBox="0 0 16 16">
<title>slide-item</title>
<path d="M2.286 3.429h11.429v5.714h-11.429v-5.714z"></path>
<path d="M14.857 2.286v8h-13.714v-8h13.714zM16 1.143h-16v10.286h16v-10.286z"></path>
<path d="M12.571 12.571h1.143v1.143h-1.143v-1.143z"></path>
<path d="M2.286 12.571h1.143v1.143h-1.143v-1.143z"></path>
<path d="M4.571 12.571h1.143v1.143h-1.143v-1.143z"></path>
<path d="M10.286 12.571h1.143v1.143h-1.143v-1.143z"></path>
<path d="M6.857 12.571h2.286v1.143h-2.286v-1.143z"></path>
</symbol>
<symbol id="coh-icon-style-tree" viewBox="0 0 16 16">
<title>style-tree</title>
<path d="M13.814 3.429h-11.557c-0.596 0-1.079-0.482-1.079-1.079v-1.271c0-0.596 0.482-1.079 1.079-1.079h11.561c0.593 0 1.075 0.482 1.075 1.079v1.275c0 0.593-0.482 1.075-1.079 1.075z"></path>
<path d="M13.814 9.714h-8.129c-0.596 0-1.079-0.482-1.079-1.079v-1.275c0-0.596 0.482-1.079 1.079-1.079h8.132c0.596 0 1.079 0.482 1.079 1.079v1.275c-0.004 0.596-0.486 1.079-1.082 1.079z"></path>
<path d="M13.814 16h-8.129c-0.596 0-1.079-0.482-1.079-1.079v-1.275c0-0.596 0.482-1.079 1.079-1.079h8.132c0.596 0 1.079 0.482 1.079 1.079v1.275c-0.004 0.596-0.486 1.079-1.082 1.079z"></path>
<path d="M2.286 2.839h1.143v12.036h-1.143v-12.036z"></path>
<path d="M2.607 7.429h2.786v1.143h-2.786v-1.143z"></path>
<path d="M2.75 13.732h2.786v1.143h-2.786v-1.143z"></path>
</symbol>
<symbol id="coh-icon-svg" viewBox="0 0 16 16">
<title>svg</title>
<path d="M6.357 6.357c-0.301 0.309-0.72 0.5-1.185 0.5-0.010 0-0.021-0-0.031-0-0.001 0-0.003 0-0.006 0-0.943 0-1.707-0.764-1.707-1.707 0-0.003 0-0.005 0-0.008s-0-0.004-0-0.007c0-0.943 0.764-1.707 1.707-1.707 0.003 0 0.005 0 0.008 0s0.004-0 0.007-0c0.943 0 1.707 0.764 1.707 1.707 0 0.003 0 0.005-0 0.008 0 0.008 0 0.019 0 0.029 0 0.464-0.192 0.884-0.5 1.184zM12.571 8.571v2.857h-9.143v-1.714l1.714-1.714 1.143 1.143 3.429-3.429z"></path>
<path d="M0 12.571h1.143v3.429h-1.143v-3.429z"></path>
<path d="M1.143 14.857h2.286v1.143h-2.286v-1.143z"></path>
<path d="M12.571 0h3.429v1.143h-3.429v-1.143z"></path>
<path d="M14.857 1.143h1.143v2.286h-1.143v-2.286z"></path>
</symbol>
<symbol id="coh-icon-tablet" viewBox="0 0 10 16">
<title>tablet</title>
<path d="M5.714 12.571q0-0.232-0.17-0.402t-0.402-0.17-0.402 0.17-0.17 0.402 0.17 0.402 0.402 0.17 0.402-0.17 0.17-0.402zM9.143 11.143v-8.571q0-0.116-0.085-0.201t-0.201-0.085h-7.429q-0.116 0-0.201 0.085t-0.085 0.201v8.571q0 0.116 0.085 0.201t0.201 0.085h7.429q0.116 0 0.201-0.085t0.085-0.201zM10.286 2.571v9.714q0 0.589-0.42 1.009t-1.009 0.42h-7.429q-0.589 0-1.009-0.42t-0.42-1.009v-9.714q0-0.589 0.42-1.009t1.009-0.42h7.429q0.589 0 1.009 0.42t0.42 1.009z"></path>
</symbol>
<symbol id="coh-icon-television" viewBox="0 0 17 16">
<title>television</title>
<path d="M16 11.143v-8.571q0-0.116-0.085-0.201t-0.201-0.085h-14.286q-0.116 0-0.201 0.085t-0.085 0.201v8.571q0 0.116 0.085 0.201t0.201 0.085h14.286q0.116 0 0.201-0.085t0.085-0.201zM17.143 2.571v8.571q0 0.589-0.42 1.009t-1.009 0.42h-6.571v1.143h3.143q0.125 0 0.205 0.080t0.080 0.205v0.571q0 0.125-0.080 0.205t-0.205 0.080h-7.429q-0.125 0-0.205-0.080t-0.080-0.205v-0.571q0-0.125 0.080-0.205t0.205-0.080h3.143v-1.143h-6.571q-0.589 0-1.009-0.42t-0.42-1.009v-8.571q0-0.589 0.42-1.009t1.009-0.42h14.286q0.589 0 1.009 0.42t0.42 1.009z"></path>
</symbol>
<symbol id="coh-icon-terminal" viewBox="0 0 16 16">
<title>terminal</title>
<path d="M5.813 7.866l-4.021 4.021q-0.086 0.086-0.198 0.086t-0.198-0.086l-0.431-0.431q-0.086-0.086-0.086-0.198t0.086-0.198l3.391-3.391-3.391-3.391q-0.086-0.086-0.086-0.198t0.086-0.198l0.431-0.431q0.086-0.086 0.198-0.086t0.198 0.086l4.021 4.021q0.086 0.086 0.086 0.198t-0.086 0.198zM15.122 11.809v0.552q0 0.121-0.078 0.198t-0.198 0.078h-8.283q-0.121 0-0.198-0.078t-0.078-0.198v-0.552q0-0.121 0.078-0.198t0.198-0.078h8.283q0.121 0 0.198 0.078t0.078 0.198z"></path>
</symbol>
<symbol id="coh-icon-text-area" viewBox="0 0 16 16">
<title>text-area</title>
<path d="M14.857 2.286v11.429h-13.714v-11.429h13.714zM16 1.143h-16v13.714h16v-13.714z"></path>
<path d="M10.286 2.143h1.143v11.714h-1.143v-11.714z"></path>
<path d="M11.429 6.857h3.429v2.286h-3.429v-2.286z"></path>
<path d="M2.286 6.857h6.857v2.286h-6.857v-2.286z"></path>
<path d="M2.286 3.429h6.857v2.286h-6.857v-2.286z"></path>
<path d="M2.286 10.286h6.857v2.286h-6.857v-2.286z"></path>
<path d="M13.143 12.808l-1.38-1.38h2.759z"></path>
<path d="M13.143 3.192l1.38 1.38h-2.759z"></path>
</symbol>
<symbol id="coh-icon-toggle-on" viewBox="0 0 16 16">
<title>toggle-on</title>
<path d="M0 8q0-1.016 0.398-1.941t1.066-1.594 1.594-1.066 1.941-0.398h6q1.016 0 1.941 0.398t1.594 1.066 1.066 1.594 0.398 1.941-0.398 1.941-1.066 1.594-1.594 1.066-1.941 0.398h-6q-1.016 0-1.941-0.398t-1.594-1.066-1.066-1.594-0.398-1.941zM11 12q0.813 0 1.551-0.316t1.277-0.855 0.855-1.277 0.316-1.551-0.316-1.551-0.855-1.277-1.277-0.855-1.551-0.316-1.551 0.316-1.277 0.855-0.855 1.277-0.316 1.551 0.316 1.551 0.855 1.277 1.277 0.855 1.551 0.316z"></path>
</symbol>
<symbol id="coh-icon-toggle-variable-mode" viewBox="0 0 16 16">
<title>toggle-variable-mode</title>
<path d="M4.571 2.861v-1.714h-4.571v13.711h4.571v-1.714h-2.857v-10.282h2.857z"></path>
<path d="M11.429 1.143v1.714h2.857v10.286h-2.857v1.714h4.571v-13.714h-4.571z"></path>
<path d="M11.714 7.143h-2.857v-2.857c0-0.473-0.384-0.857-0.857-0.857s-0.857 0.384-0.857 0.857v0 2.857h-2.857c-0.473 0.001-0.856 0.384-0.857 0.857v0c0.001 0.473 0.384 0.856 0.857 0.857h2.857v2.857c0 0.473 0.384 0.857 0.857 0.857s0.857-0.384 0.857-0.857v0-2.857h2.857c0.473-0.001 0.856-0.384 0.857-0.857v-0c-0.001-0.473-0.384-0.856-0.857-0.857h-0z"></path>
</symbol>
<symbol id="coh-icon-trash" viewBox="0 0 16 16">
<title>trash</title>
<path d="M6.286 12.286v-6.286c0-0.161-0.125-0.286-0.286-0.286h-0.571c-0.161 0-0.286 0.125-0.286 0.286v6.286c0 0.161 0.125 0.286 0.286 0.286h0.571c0.161 0 0.286-0.125 0.286-0.286zM8.571 12.286v-6.286c0-0.161-0.125-0.286-0.286-0.286h-0.571c-0.161 0-0.286 0.125-0.286 0.286v6.286c0 0.161 0.125 0.286 0.286 0.286h0.571c0.161 0 0.286-0.125 0.286-0.286zM10.857 12.286v-6.286c0-0.161-0.125-0.286-0.286-0.286h-0.571c-0.161 0-0.286 0.125-0.286 0.286v6.286c0 0.161 0.125 0.286 0.286 0.286h0.571c0.161 0 0.286-0.125 0.286-0.286zM6 3.429h4l-0.429-1.045c-0.027-0.036-0.107-0.089-0.152-0.098h-2.83c-0.054 0.009-0.125 0.063-0.152 0.098zM14.286 3.714v0.571c0 0.161-0.125 0.286-0.286 0.286h-0.857v8.464c0 0.982-0.643 1.821-1.429 1.821h-7.429c-0.786 0-1.429-0.804-1.429-1.786v-8.5h-0.857c-0.161 0-0.286-0.125-0.286-0.286v-0.571c0-0.161 0.125-0.286 0.286-0.286h2.759l0.625-1.491c0.179-0.438 0.714-0.795 1.188-0.795h2.857c0.473 0 1.009 0.357 1.188 0.795l0.625 1.491h2.759c0.161 0 0.286 0.125 0.286 0.286z"></path>
</symbol>
<symbol id="coh-icon-video-background" viewBox="0 0 16 16">
<title>video-background</title>
<path d="M14.857 3.403v9.169h-13.714v-9.169h13.714zM16 2.26h-16v11.454h16v-11.454z"></path>
<path d="M11.348 8.137l-5.405 3.259q-0.094 0.057-0.161 0.013t-0.067-0.159v-6.5q0-0.115 0.067-0.159t0.161 0.013l5.405 3.259q0.094 0.058 0.094 0.137t-0.094 0.137z"></path>
</symbol>
<symbol id="coh-icon-view-variable" viewBox="0 0 16 16">
<title>view-variable</title>
<path d="M11.393 10.154v1.274h-1.889l-1.209-1.924-0.181-0.321c-0.038-0.045-0.067-0.099-0.085-0.158l-0.001-0.003h-0.021l-0.067 0.161c-0.067 0.135-0.13 0.245-0.198 0.351l0.009-0.015-1.179 1.91h-1.964v-1.274h0.975l1.5-2.224-1.408-2.078h-1.041v-1.281h2.102l1.056 1.742c0.011 0.021 0.067 0.129 0.174 0.321 0.038 0.045 0.067 0.099 0.085 0.158l0.001 0.003h0.021c0.022-0.061 0.051-0.115 0.086-0.162l-0.001 0.002 0.189-0.321 1.066-1.742h1.956v1.281h-0.95l-1.408 2.040 1.554 2.26h0.829v0.004z"></path>
<path d="M0 1.161v13.696h4.571v-1.714h-2.857v-10.282h2.857v-1.714h-4.571v0.014z"></path>
<path d="M11.429 1.143v1.714h2.857v10.286h-2.857v1.714h4.571v-13.714h-4.571z"></path>
</symbol>
<symbol id="coh-icon-wysiwyg" viewBox="0 0 16 16">
<title>wysiwyg</title>
<path d="M0 1.143v13.714h16v-13.714h-16zM14.857 13.714h-13.714v-10.286h13.714v10.286z"></path>
<path d="M2.286 5.714h5.714v3.429h-5.714v-3.429z"></path>
<path d="M9.143 5.714h4.571v1.143h-4.571v-1.143z"></path>
<path d="M9.143 8h4.571v1.143h-4.571v-1.143z"></path>
<path d="M2.286 10.286h11.429v1.143h-11.429v-1.143z"></path>
</symbol>
<symbol id="coh-icon-youtube-play" viewBox="0 0 16 16">
<title>youtube-play</title>
<path d="M11.429 8q0-0.33-0.268-0.482l-4.571-2.857q-0.277-0.179-0.58-0.018-0.295 0.161-0.295 0.5v5.714q0 0.339 0.295 0.5 0.143 0.071 0.277 0.071 0.179 0 0.304-0.089l4.571-2.857q0.268-0.152 0.268-0.482zM16 8q0 0.857-0.009 1.339t-0.076 1.219-0.201 1.317q-0.143 0.652-0.616 1.098t-1.107 0.518q-1.982 0.223-5.991 0.223t-5.991-0.223q-0.634-0.071-1.112-0.518t-0.621-1.098q-0.125-0.58-0.192-1.317t-0.076-1.219-0.009-1.339 0.009-1.339 0.076-1.219 0.201-1.317q0.143-0.652 0.616-1.098t1.107-0.518q1.982-0.223 5.991-0.223t5.991 0.223q0.634 0.071 1.112 0.518t0.621 1.098q0.125 0.58 0.192 1.317t0.076 1.219 0.009 1.339z"></path>
</symbol>
</defs>
</svg>
